<svg width="125" height="111" viewBox="0 0 125 111" fill="none" xmlns="http://www.w3.org/2000/svg">
<path d="M60.5507 1.34951C57.3299 4.50771 53.713 9.87666 51.6802 14.5278C49.8322 18.777 49.3834 20.9591 49.3834 25.9835C49.357 29.7733 49.4362 30.4911 49.9378 31.9841C51.3898 36.1472 54.2146 39.7073 57.4355 41.4013C58.5179 41.9755 59.6531 42.521 59.9963 42.6358L60.5771 42.8081V36.9224C60.5771 31.0653 60.5771 31.0366 59.9963 30.8644C59.1779 30.5772 57.7787 29.113 57.3827 28.0794C57.1979 27.5626 56.9867 27.3329 56.8283 27.5052C56.5379 27.821 57.5147 30.5198 58.0955 31.0366C58.3067 31.2089 58.4651 31.4673 58.4651 31.6108C58.4651 32.7019 56.0363 30.0317 55.4027 28.2804C55.165 27.5626 54.8482 26.9884 54.7162 26.9884C54.5842 26.9884 54.5578 26.8448 54.6634 26.6438C54.769 26.4429 54.7426 26.4142 54.5314 26.529C54.109 26.8161 54.4258 29.8308 55.0594 31.697C55.7195 33.6206 55.5347 33.678 54.6898 31.8118C53.7394 29.7159 53.4754 28.1368 53.449 25.0935C53.449 22.1362 54.0826 19.0929 55.3235 16.1356C56.3531 13.6378 59.0987 9.21631 61.0259 6.94814L62.5572 5.11064L64.0356 7.0917C66.0948 9.81924 68.6292 13.9823 69.5797 16.1644C70.8469 19.1503 71.7181 23.3134 71.5861 25.8399C71.5333 27.1319 71.3221 28.3378 71.0581 28.8546L70.6093 29.7159L70.7677 28.3665C71.0053 26.2993 70.6357 26.1845 69.8437 28.0507C69.4213 28.9981 68.5764 30.2327 67.89 30.9218C66.6756 32.1563 65.9364 32.6157 66.7284 31.6396C67.23 31.0366 68.7612 27.4765 68.7612 26.931C68.7348 26.73 68.5764 26.9597 68.3916 27.419C68.2068 27.9071 67.4148 28.912 66.6492 29.6585C65.4084 30.8931 64.8804 31.1802 64.1676 31.0366C64.0356 31.0079 64.0092 32.5009 64.0884 34.6542C64.194 36.664 64.2732 39.2767 64.2732 40.4538V42.5497L65.1444 42.3774C66.8076 42.0329 69.3421 40.3964 71.1637 38.5302C75.6517 33.9364 77.0774 26.2993 74.8333 18.8058C73.6717 14.8724 71.7973 11.0538 69.3157 7.46494C66.9132 3.96221 63.27 9.54345e-05 62.478 9.54345e-05C62.1876 9.54345e-05 61.3163 0.603025 60.5507 1.34951Z" fill="black"/>
<path d="M60.5507 1.34951C57.3299 4.50771 53.713 9.87666 51.6802 14.5278C49.8322 18.777 49.3834 20.9591 49.3834 25.9835C49.357 29.7733 49.4362 30.4911 49.9378 31.9841C51.3898 36.1472 54.2146 39.7073 57.4355 41.4013C58.5179 41.9755 59.6531 42.521 59.9963 42.6358L60.5771 42.8081V36.9224C60.5771 31.0653 60.5771 31.0366 59.9963 30.8644C59.1779 30.5772 57.7787 29.113 57.3827 28.0794C57.1979 27.5626 56.9867 27.3329 56.8283 27.5052C56.5379 27.821 57.5147 30.5198 58.0955 31.0366C58.3067 31.2089 58.4651 31.4673 58.4651 31.6108C58.4651 32.7019 56.0363 30.0317 55.4027 28.2804C55.165 27.5626 54.8482 26.9884 54.7162 26.9884C54.5842 26.9884 54.5578 26.8448 54.6634 26.6438C54.769 26.4429 54.7426 26.4142 54.5314 26.529C54.109 26.8161 54.4258 29.8308 55.0594 31.697C55.7195 33.6206 55.5347 33.678 54.6898 31.8118C53.7394 29.7159 53.4754 28.1368 53.449 25.0935C53.449 22.1362 54.0826 19.0929 55.3235 16.1356C56.3531 13.6378 59.0987 9.21631 61.0259 6.94814L62.5572 5.11064L64.0356 7.0917C66.0948 9.81924 68.6292 13.9823 69.5797 16.1644C70.8469 19.1503 71.7181 23.3134 71.5861 25.8399C71.5333 27.1319 71.3221 28.3378 71.0581 28.8546L70.6093 29.7159L70.7677 28.3665C71.0053 26.2993 70.6357 26.1845 69.8437 28.0507C69.4213 28.9981 68.5764 30.2327 67.89 30.9218C66.6756 32.1563 65.9364 32.6157 66.7284 31.6396C67.23 31.0366 68.7612 27.4765 68.7612 26.931C68.7348 26.73 68.5764 26.9597 68.3916 27.419C68.2068 27.9071 67.4148 28.912 66.6492 29.6585C65.4084 30.8931 64.8804 31.1802 64.1676 31.0366C64.0356 31.0079 64.0092 32.5009 64.0884 34.6542C64.194 36.664 64.2732 39.2767 64.2732 40.4538V42.5497L65.1444 42.3774C66.8076 42.0329 69.3421 40.3964 71.1637 38.5302C75.6517 33.9364 77.0774 26.2993 74.8333 18.8058C73.6717 14.8724 71.7973 11.0538 69.3157 7.46494C66.9132 3.96221 63.27 9.54345e-05 62.478 9.54345e-05C62.1876 9.54345e-05 61.3163 0.603025 60.5507 1.34951Z" fill="#3C722C"/>
<path d="M21.9798 34.3672C20.343 34.4821 19.1286 35.3721 19.1286 36.4631C19.1286 36.779 19.8942 39.5926 20.8182 42.7221C21.7422 45.8229 22.6926 49.3543 22.9566 50.5315C23.1942 51.7086 23.7486 54.2352 24.171 56.1301C26.2303 65.4038 32.2232 73.7299 39.8529 77.893C41.8329 78.9553 45.6874 80.3909 47.8522 80.8502C50.5978 81.4245 56.1683 81.3958 56.6171 80.8215C57.2243 80.0176 55.4555 73.9596 53.5283 70.1411C53.0267 69.1362 52.5251 68.2749 52.4195 68.2174C52.3138 68.1313 51.733 68.3323 51.0994 68.6481C49.8058 69.2797 45.8458 69.3946 43.3905 68.9065C41.6481 68.5333 36.368 65.7483 35.2064 64.5711C34.7576 64.1118 34.3088 63.7385 34.2032 63.7385C33.992 63.7385 32.0384 61.3268 30.6391 59.317C29.0815 57.0776 28.5007 55.4411 27.0487 49.2969C26.3359 46.1961 25.3327 42.5211 24.8575 41.143L23.9598 38.6165L26.7583 38.5303C33.596 38.3294 40.1961 40.454 46.189 44.7606C48.5386 46.4258 51.8914 49.8999 53.2115 51.9958C54.5843 54.2065 55.8779 56.6182 55.7459 56.7331C55.6931 56.7905 53.8979 55.9004 51.7594 54.7233C45.4234 51.2206 41.4105 49.8424 39.8793 50.6176C39.3777 50.876 39.5625 51.0483 41.5953 52.168C47.3242 55.3549 54.3203 63.2792 57.4883 70.1985C59.1516 73.8448 60.3132 79.3286 60.3132 83.6065C60.3132 87.5686 59.1516 91.7317 57.4883 93.7989L56.7491 94.6889L51.865 95.1483C36.9488 96.5838 25.4911 99.1678 11.0765 104.365C1.91552 107.666 -0.170113 108.786 0.516297 109.963C0.621899 110.164 21.1878 110.25 62.3988 110.25C117.84 110.25 124.176 110.193 124.466 109.791C125.021 109.073 124.361 108.614 119.952 106.776C103.531 99.8569 91.1752 96.8997 70.0813 94.8325L67.8373 94.6028L66.9661 93.0237C63.666 86.9944 63.8244 79.2424 67.4677 70.6579C70.8469 62.7049 78.6614 54.0629 84.9975 51.2493L86.476 50.6176L85.5255 50.4454C83.6775 50.1295 81.4599 50.8186 75.8102 53.4313C72.7214 54.8668 69.9493 56.2163 69.6325 56.4459C69.2893 56.6756 69.0253 56.7618 69.0253 56.6182C69.0253 56.5034 69.8437 55.0391 70.8205 53.3739C74.3846 47.4881 79.4535 43.2676 86.1855 40.6262C89.6704 39.2768 92.3632 38.7313 96.8513 38.559C100.917 38.3868 101.049 38.4155 100.864 38.9323C99.7553 41.8608 99.1745 43.9567 98.1713 48.3782C96.4025 56.1301 96.1121 56.9053 94.0793 59.92C91.624 63.4514 89.9608 65.0305 87.1096 66.4661C83.5191 68.3323 81.5655 68.9639 79.0574 69.1075C76.8398 69.251 73.6454 68.7917 73.883 68.361C73.9622 68.2461 73.7774 68.0165 73.487 67.8155C73.0382 67.4997 72.9062 67.5858 72.4309 68.3897C70.7149 71.4043 68.6557 77.0317 68.3389 79.5583C68.1805 80.879 68.2069 80.9364 68.8933 81.1374C70.3981 81.5393 76.4438 81.0512 79.1102 80.3047C87.5584 77.9217 94.9505 71.2608 98.5937 62.7911C99.993 59.518 100.811 56.7618 101.63 52.3977C102.026 50.3305 103.108 46.0813 104.059 42.9518C106.487 34.7692 106.408 34.5395 100.811 34.2524C96.4817 34.0514 92.8384 34.4821 88.3768 35.7167C80.9583 37.8413 75.863 40.8559 71.1901 45.9665C67.9429 49.5266 64.3788 55.6133 63.2172 59.5754C62.7156 61.2981 62.5572 61.3268 62.0292 59.8051C61.3164 57.7092 58.8347 52.6848 57.3827 50.3879C55.7459 47.7752 52.2874 44.0428 49.5946 41.9756C45.4498 38.76 39.1929 35.8889 34.0448 34.8553C31.6952 34.3959 24.9631 34.1088 21.9798 34.3672ZM47.113 97.8758C47.113 98.3065 45.8722 98.5936 39.0609 99.9143C35.4968 100.603 28.0783 102.785 22.0062 104.939C17.2013 106.633 15.9077 106.948 18.4686 105.771C25.0951 102.785 34.3616 99.9717 43.0209 98.3352C47.1658 97.56 47.113 97.56 47.113 97.8758ZM86.0535 99.2252C90.4096 100.144 95.0033 101.379 98.8049 102.671C102.263 103.848 106.065 105.369 105.907 105.542C105.775 105.685 103.451 104.967 97.8545 103.101C95.9009 102.441 94.2377 101.981 94.1057 102.068C93.9737 102.154 93.8417 102.096 93.7889 101.953C93.6833 101.551 90.6208 100.747 83.8887 99.3114C80.6415 98.6223 78.0014 97.962 78.0014 97.8758C78.0014 97.6749 81.4071 98.2491 86.0535 99.2252ZM68.7613 99.4836C77.4998 100.345 86.9512 102.785 95.1089 106.231C98.3297 107.58 97.5641 107.58 94.0793 106.231C90.0136 104.623 83.4399 102.671 78.7934 101.637C73.5662 100.489 68.8933 100.058 62.1612 100.058C55.8251 100.087 53.5019 100.345 47.113 101.781C45.4497 102.154 43.6017 102.527 43.0473 102.642C41.7009 102.872 36.5 104.537 32.4872 105.972C30.7711 106.604 29.2927 107.035 29.2399 106.977C29.0287 106.776 35.312 104.25 38.5593 103.245C41.9913 102.182 49.225 100.431 52.261 99.9143C57.5939 99.0243 62.9796 98.8807 68.7613 99.4836ZM69.0517 102.958C70.6621 103.187 73.3814 103.762 75.071 104.221C78.239 105.111 82.8591 106.776 82.6479 107.006C82.5951 107.063 81.1959 106.661 79.5591 106.116C77.8958 105.57 74.939 104.738 72.9854 104.307C69.6325 103.561 69.0253 103.503 62.8212 103.503C56.4323 103.503 56.0891 103.532 52.1026 104.451C49.8322 104.967 47.113 105.685 46.057 106.087C43.3641 107.092 42.8625 106.977 45.2649 105.915C47.509 104.91 52.4987 103.532 55.9835 102.958C59.2044 102.412 65.4612 102.412 69.0517 102.958Z" fill="black"/>
<path d="M21.9798 34.3672C20.343 34.4821 19.1286 35.3721 19.1286 36.4631C19.1286 36.779 19.8942 39.5926 20.8182 42.7221C21.7422 45.8229 22.6926 49.3543 22.9566 50.5315C23.1942 51.7086 23.7486 54.2352 24.171 56.1301C26.2303 65.4038 32.2232 73.7299 39.8529 77.893C41.8329 78.9553 45.6874 80.3909 47.8522 80.8502C50.5978 81.4245 56.1683 81.3958 56.6171 80.8215C57.2243 80.0176 55.4555 73.9596 53.5283 70.1411C53.0267 69.1362 52.5251 68.2749 52.4195 68.2174C52.3138 68.1313 51.733 68.3323 51.0994 68.6481C49.8058 69.2797 45.8458 69.3946 43.3905 68.9065C41.6481 68.5333 36.368 65.7483 35.2064 64.5711C34.7576 64.1118 34.3088 63.7385 34.2032 63.7385C33.992 63.7385 32.0384 61.3268 30.6391 59.317C29.0815 57.0776 28.5007 55.4411 27.0487 49.2969C26.3359 46.1961 25.3327 42.5211 24.8575 41.143L23.9598 38.6165L26.7583 38.5303C33.596 38.3294 40.1961 40.454 46.189 44.7606C48.5386 46.4258 51.8914 49.8999 53.2115 51.9958C54.5843 54.2065 55.8779 56.6182 55.7459 56.7331C55.6931 56.7905 53.8979 55.9004 51.7594 54.7233C45.4234 51.2206 41.4105 49.8424 39.8793 50.6176C39.3777 50.876 39.5625 51.0483 41.5953 52.168C47.3242 55.3549 54.3203 63.2792 57.4883 70.1985C59.1516 73.8448 60.3132 79.3286 60.3132 83.6065C60.3132 87.5686 59.1516 91.7317 57.4883 93.7989L56.7491 94.6889L51.865 95.1483C36.9488 96.5838 25.4911 99.1678 11.0765 104.365C1.91552 107.666 -0.170113 108.786 0.516297 109.963C0.621899 110.164 21.1878 110.25 62.3988 110.25C117.84 110.25 124.176 110.193 124.466 109.791C125.021 109.073 124.361 108.614 119.952 106.776C103.531 99.8569 91.1752 96.8997 70.0813 94.8325L67.8373 94.6028L66.9661 93.0237C63.666 86.9944 63.8244 79.2424 67.4677 70.6579C70.8469 62.7049 78.6614 54.0629 84.9975 51.2493L86.476 50.6176L85.5255 50.4454C83.6775 50.1295 81.4599 50.8186 75.8102 53.4313C72.7214 54.8668 69.9493 56.2163 69.6325 56.4459C69.2893 56.6756 69.0253 56.7618 69.0253 56.6182C69.0253 56.5034 69.8437 55.0391 70.8205 53.3739C74.3846 47.4881 79.4535 43.2676 86.1855 40.6262C89.6704 39.2768 92.3632 38.7313 96.8513 38.559C100.917 38.3868 101.049 38.4155 100.864 38.9323C99.7553 41.8608 99.1745 43.9567 98.1713 48.3782C96.4025 56.1301 96.1121 56.9053 94.0793 59.92C91.624 63.4514 89.9608 65.0305 87.1096 66.4661C83.5191 68.3323 81.5655 68.9639 79.0574 69.1075C76.8398 69.251 73.6454 68.7917 73.883 68.361C73.9622 68.2461 73.7774 68.0165 73.487 67.8155C73.0382 67.4997 72.9062 67.5858 72.4309 68.3897C70.7149 71.4043 68.6557 77.0317 68.3389 79.5583C68.1805 80.879 68.2069 80.9364 68.8933 81.1374C70.3981 81.5393 76.4438 81.0512 79.1102 80.3047C87.5584 77.9217 94.9505 71.2608 98.5937 62.7911C99.993 59.518 100.811 56.7618 101.63 52.3977C102.026 50.3305 103.108 46.0813 104.059 42.9518C106.487 34.7692 106.408 34.5395 100.811 34.2524C96.4817 34.0514 92.8384 34.4821 88.3768 35.7167C80.9583 37.8413 75.863 40.8559 71.1901 45.9665C67.9429 49.5266 64.3788 55.6133 63.2172 59.5754C62.7156 61.2981 62.5572 61.3268 62.0292 59.8051C61.3164 57.7092 58.8347 52.6848 57.3827 50.3879C55.7459 47.7752 52.2874 44.0428 49.5946 41.9756C45.4498 38.76 39.1929 35.8889 34.0448 34.8553C31.6952 34.3959 24.9631 34.1088 21.9798 34.3672ZM47.113 97.8758C47.113 98.3065 45.8722 98.5936 39.0609 99.9143C35.4968 100.603 28.0783 102.785 22.0062 104.939C17.2013 106.633 15.9077 106.948 18.4686 105.771C25.0951 102.785 34.3616 99.9717 43.0209 98.3352C47.1658 97.56 47.113 97.56 47.113 97.8758ZM86.0535 99.2252C90.4096 100.144 95.0033 101.379 98.8049 102.671C102.263 103.848 106.065 105.369 105.907 105.542C105.775 105.685 103.451 104.967 97.8545 103.101C95.9009 102.441 94.2377 101.981 94.1057 102.068C93.9737 102.154 93.8417 102.096 93.7889 101.953C93.6833 101.551 90.6208 100.747 83.8887 99.3114C80.6415 98.6223 78.0014 97.962 78.0014 97.8758C78.0014 97.6749 81.4071 98.2491 86.0535 99.2252ZM68.7613 99.4836C77.4998 100.345 86.9512 102.785 95.1089 106.231C98.3297 107.58 97.5641 107.58 94.0793 106.231C90.0136 104.623 83.4399 102.671 78.7934 101.637C73.5662 100.489 68.8933 100.058 62.1612 100.058C55.8251 100.087 53.5019 100.345 47.113 101.781C45.4497 102.154 43.6017 102.527 43.0473 102.642C41.7009 102.872 36.5 104.537 32.4872 105.972C30.7711 106.604 29.2927 107.035 29.2399 106.977C29.0287 106.776 35.312 104.25 38.5593 103.245C41.9913 102.182 49.225 100.431 52.261 99.9143C57.5939 99.0243 62.9796 98.8807 68.7613 99.4836ZM69.0517 102.958C70.6621 103.187 73.3814 103.762 75.071 104.221C78.239 105.111 82.8591 106.776 82.6479 107.006C82.5951 107.063 81.1959 106.661 79.5591 106.116C77.8958 105.57 74.939 104.738 72.9854 104.307C69.6325 103.561 69.0253 103.503 62.8212 103.503C56.4323 103.503 56.0891 103.532 52.1026 104.451C49.8322 104.967 47.113 105.685 46.057 106.087C43.3641 107.092 42.8625 106.977 45.2649 105.915C47.509 104.91 52.4987 103.532 55.9835 102.958C59.2044 102.412 65.4612 102.412 69.0517 102.958Z" fill="#3C722C"/>
</svg>
