<svg width="339" height="176" viewBox="0 0 339 176" fill="none" xmlns="http://www.w3.org/2000/svg">
<path d="M60.5507 66.3495C57.3299 69.5077 53.713 74.8767 51.6802 79.5278C49.8322 83.777 49.3834 85.9591 49.3834 90.9835C49.357 94.7733 49.4362 95.4911 49.9378 96.9841C51.3898 101.147 54.2146 104.707 57.4355 106.401C58.5179 106.975 59.6531 107.521 59.9963 107.636L60.5771 107.808V101.922C60.5771 96.0653 60.5771 96.0366 59.9963 95.8644C59.1779 95.5772 57.7787 94.113 57.3827 93.0794C57.1979 92.5626 56.9867 92.3329 56.8283 92.5052C56.5379 92.821 57.5147 95.5198 58.0955 96.0366C58.3067 96.2089 58.4651 96.4673 58.4651 96.6108C58.4651 97.7019 56.0363 95.0317 55.4027 93.2804C55.165 92.5626 54.8482 91.9884 54.7162 91.9884C54.5842 91.9884 54.5578 91.8448 54.6634 91.6438C54.769 91.4429 54.7426 91.4142 54.5314 91.529C54.109 91.8161 54.4258 94.8308 55.0594 96.697C55.7195 98.6206 55.5347 98.678 54.6898 96.8118C53.7394 94.7159 53.4754 93.1368 53.449 90.0935C53.449 87.1362 54.0826 84.0929 55.3235 81.1356C56.3531 78.6378 59.0987 74.2163 61.0259 71.9481L62.5572 70.1106L64.0356 72.0917C66.0948 74.8192 68.6292 78.9823 69.5797 81.1644C70.8469 84.1503 71.7181 88.3134 71.5861 90.8399C71.5333 92.1319 71.3221 93.3378 71.0581 93.8546L70.6093 94.7159L70.7677 93.3665C71.0053 91.2993 70.6357 91.1845 69.8437 93.0507C69.4213 93.9981 68.5764 95.2327 67.89 95.9218C66.6756 97.1563 65.9364 97.6157 66.7284 96.6396C67.23 96.0366 68.7612 92.4765 68.7612 91.931C68.7348 91.73 68.5764 91.9597 68.3916 92.419C68.2068 92.9071 67.4148 93.912 66.6492 94.6585C65.4084 95.8931 64.8804 96.1802 64.1676 96.0366C64.0356 96.0079 64.0092 97.5009 64.0884 99.6542C64.194 101.664 64.2732 104.277 64.2732 105.454V107.55L65.1444 107.377C66.8076 107.033 69.3421 105.396 71.1637 103.53C75.6517 98.9364 77.0774 91.2993 74.8333 83.8058C73.6717 79.8724 71.7973 76.0538 69.3157 72.4649C66.9132 68.9622 63.27 65.0001 62.478 65.0001C62.1876 65.0001 61.3163 65.603 60.5507 66.3495Z" fill="black"/>
<path d="M60.5507 66.3495C57.3299 69.5077 53.713 74.8767 51.6802 79.5278C49.8322 83.777 49.3834 85.9591 49.3834 90.9835C49.357 94.7733 49.4362 95.4911 49.9378 96.9841C51.3898 101.147 54.2146 104.707 57.4355 106.401C58.5179 106.975 59.6531 107.521 59.9963 107.636L60.5771 107.808V101.922C60.5771 96.0653 60.5771 96.0366 59.9963 95.8644C59.1779 95.5772 57.7787 94.113 57.3827 93.0794C57.1979 92.5626 56.9867 92.3329 56.8283 92.5052C56.5379 92.821 57.5147 95.5198 58.0955 96.0366C58.3067 96.2089 58.4651 96.4673 58.4651 96.6108C58.4651 97.7019 56.0363 95.0317 55.4027 93.2804C55.165 92.5626 54.8482 91.9884 54.7162 91.9884C54.5842 91.9884 54.5578 91.8448 54.6634 91.6438C54.769 91.4429 54.7426 91.4142 54.5314 91.529C54.109 91.8161 54.4258 94.8308 55.0594 96.697C55.7195 98.6206 55.5347 98.678 54.6898 96.8118C53.7394 94.7159 53.4754 93.1368 53.449 90.0935C53.449 87.1362 54.0826 84.0929 55.3235 81.1356C56.3531 78.6378 59.0987 74.2163 61.0259 71.9481L62.5572 70.1106L64.0356 72.0917C66.0948 74.8192 68.6292 78.9823 69.5797 81.1644C70.8469 84.1503 71.7181 88.3134 71.5861 90.8399C71.5333 92.1319 71.3221 93.3378 71.0581 93.8546L70.6093 94.7159L70.7677 93.3665C71.0053 91.2993 70.6357 91.1845 69.8437 93.0507C69.4213 93.9981 68.5764 95.2327 67.89 95.9218C66.6756 97.1563 65.9364 97.6157 66.7284 96.6396C67.23 96.0366 68.7612 92.4765 68.7612 91.931C68.7348 91.73 68.5764 91.9597 68.3916 92.419C68.2068 92.9071 67.4148 93.912 66.6492 94.6585C65.4084 95.8931 64.8804 96.1802 64.1676 96.0366C64.0356 96.0079 64.0092 97.5009 64.0884 99.6542C64.194 101.664 64.2732 104.277 64.2732 105.454V107.55L65.1444 107.377C66.8076 107.033 69.3421 105.396 71.1637 103.53C75.6517 98.9364 77.0774 91.2993 74.8333 83.8058C73.6717 79.8724 71.7973 76.0538 69.3157 72.4649C66.9132 68.9622 63.27 65.0001 62.478 65.0001C62.1876 65.0001 61.3163 65.603 60.5507 66.3495Z" fill="#3C722C"/>
<path d="M21.9798 99.3672C20.343 99.4821 19.1286 100.372 19.1286 101.463C19.1286 101.779 19.8942 104.593 20.8182 107.722C21.7422 110.823 22.6926 114.354 22.9566 115.531C23.1942 116.709 23.7486 119.235 24.171 121.13C26.2303 130.404 32.2232 138.73 39.8529 142.893C41.8329 143.955 45.6874 145.391 47.8522 145.85C50.5978 146.424 56.1683 146.396 56.6171 145.822C57.2243 145.018 55.4555 138.96 53.5283 135.141C53.0267 134.136 52.5251 133.275 52.4195 133.217C52.3138 133.131 51.733 133.332 51.0994 133.648C49.8058 134.28 45.8458 134.395 43.3905 133.906C41.6481 133.533 36.368 130.748 35.2064 129.571C34.7576 129.112 34.3088 128.739 34.2032 128.739C33.992 128.739 32.0384 126.327 30.6391 124.317C29.0815 122.078 28.5007 120.441 27.0487 114.297C26.3359 111.196 25.3327 107.521 24.8575 106.143L23.9598 103.616L26.7583 103.53C33.596 103.329 40.1961 105.454 46.189 109.761C48.5386 111.426 51.8914 114.9 53.2115 116.996C54.5843 119.206 55.8779 121.618 55.7459 121.733C55.6931 121.79 53.8979 120.9 51.7594 119.723C45.4234 116.221 41.4105 114.842 39.8793 115.618C39.3777 115.876 39.5625 116.048 41.5953 117.168C47.3242 120.355 54.3203 128.279 57.4883 135.198C59.1516 138.845 60.3132 144.329 60.3132 148.606C60.3132 152.569 59.1516 156.732 57.4883 158.799L56.7491 159.689L51.865 160.148C36.9488 161.584 25.4911 164.168 11.0765 169.365C1.91552 172.666 -0.170113 173.786 0.516297 174.963C0.621899 175.164 21.1878 175.25 62.3988 175.25C117.84 175.25 124.176 175.193 124.466 174.791C125.021 174.073 124.361 173.614 119.952 171.776C103.531 164.857 91.1752 161.9 70.0813 159.832L67.8373 159.603L66.9661 158.024C63.666 151.994 63.8244 144.242 67.4677 135.658C70.8469 127.705 78.6614 119.063 84.9975 116.249L86.476 115.618L85.5255 115.445C83.6775 115.13 81.4599 115.819 75.8102 118.431C72.7214 119.867 69.9493 121.216 69.6325 121.446C69.2893 121.676 69.0253 121.762 69.0253 121.618C69.0253 121.503 69.8437 120.039 70.8205 118.374C74.3846 112.488 79.4535 108.268 86.1855 105.626C89.6704 104.277 92.3632 103.731 96.8513 103.559C100.917 103.387 101.049 103.415 100.864 103.932C99.7553 106.861 99.1745 108.957 98.1713 113.378C96.4025 121.13 96.1121 121.905 94.0793 124.92C91.624 128.451 89.9608 130.031 87.1096 131.466C83.5191 133.332 81.5655 133.964 79.0574 134.107C76.8398 134.251 73.6454 133.792 73.883 133.361C73.9622 133.246 73.7774 133.016 73.487 132.815C73.0382 132.5 72.9062 132.586 72.4309 133.39C70.7149 136.404 68.6557 142.032 68.3389 144.558C68.1805 145.879 68.2069 145.936 68.8933 146.137C70.3981 146.539 76.4438 146.051 79.1102 145.305C87.5584 142.922 94.9505 136.261 98.5937 127.791C99.993 124.518 100.811 121.762 101.63 117.398C102.026 115.331 103.108 111.081 104.059 107.952C106.487 99.7692 106.408 99.5395 100.811 99.2524C96.4817 99.0514 92.8384 99.4821 88.3768 100.717C80.9583 102.841 75.863 105.856 71.1901 110.966C67.9429 114.527 64.3788 120.613 63.2172 124.575C62.7156 126.298 62.5572 126.327 62.0292 124.805C61.3164 122.709 58.8347 117.685 57.3827 115.388C55.7459 112.775 52.2874 109.043 49.5946 106.976C45.4498 103.76 39.1929 100.889 34.0448 99.8553C31.6952 99.3959 24.9631 99.1088 21.9798 99.3672ZM47.113 162.876C47.113 163.306 45.8722 163.594 39.0609 164.914C35.4968 165.603 28.0783 167.785 22.0062 169.939C17.2013 171.633 15.9077 171.948 18.4686 170.771C25.0951 167.785 34.3616 164.972 43.0209 163.335C47.1658 162.56 47.113 162.56 47.113 162.876ZM86.0535 164.225C90.4096 165.144 95.0033 166.379 98.8049 167.671C102.263 168.848 106.065 170.369 105.907 170.542C105.775 170.685 103.451 169.967 97.8545 168.101C95.9009 167.441 94.2377 166.981 94.1057 167.068C93.9737 167.154 93.8417 167.096 93.7889 166.953C93.6833 166.551 90.6208 165.747 83.8887 164.311C80.6415 163.622 78.0014 162.962 78.0014 162.876C78.0014 162.675 81.4071 163.249 86.0535 164.225ZM68.7613 164.484C77.4998 165.345 86.9512 167.785 95.1089 171.231C98.3297 172.58 97.5641 172.58 94.0793 171.231C90.0136 169.623 83.4399 167.671 78.7934 166.637C73.5662 165.489 68.8933 165.058 62.1612 165.058C55.8251 165.087 53.5019 165.345 47.113 166.781C45.4497 167.154 43.6017 167.527 43.0473 167.642C41.7009 167.872 36.5 169.537 32.4872 170.972C30.7711 171.604 29.2927 172.035 29.2399 171.977C29.0287 171.776 35.312 169.25 38.5593 168.245C41.9913 167.182 49.225 165.431 52.261 164.914C57.5939 164.024 62.9796 163.881 68.7613 164.484ZM69.0517 167.958C70.6621 168.187 73.3814 168.762 75.071 169.221C78.239 170.111 82.8591 171.776 82.6479 172.006C82.5951 172.063 81.1959 171.661 79.5591 171.116C77.8958 170.57 74.939 169.738 72.9854 169.307C69.6325 168.561 69.0253 168.503 62.8212 168.503C56.4323 168.503 56.0891 168.532 52.1026 169.451C49.8322 169.967 47.113 170.685 46.057 171.087C43.3641 172.092 42.8625 171.977 45.2649 170.915C47.509 169.91 52.4987 168.532 55.9835 167.958C59.2044 167.412 65.4612 167.412 69.0517 167.958Z" fill="black"/>
<path d="M21.9798 99.3672C20.343 99.4821 19.1286 100.372 19.1286 101.463C19.1286 101.779 19.8942 104.593 20.8182 107.722C21.7422 110.823 22.6926 114.354 22.9566 115.531C23.1942 116.709 23.7486 119.235 24.171 121.13C26.2303 130.404 32.2232 138.73 39.8529 142.893C41.8329 143.955 45.6874 145.391 47.8522 145.85C50.5978 146.424 56.1683 146.396 56.6171 145.822C57.2243 145.018 55.4555 138.96 53.5283 135.141C53.0267 134.136 52.5251 133.275 52.4195 133.217C52.3138 133.131 51.733 133.332 51.0994 133.648C49.8058 134.28 45.8458 134.395 43.3905 133.906C41.6481 133.533 36.368 130.748 35.2064 129.571C34.7576 129.112 34.3088 128.739 34.2032 128.739C33.992 128.739 32.0384 126.327 30.6391 124.317C29.0815 122.078 28.5007 120.441 27.0487 114.297C26.3359 111.196 25.3327 107.521 24.8575 106.143L23.9598 103.616L26.7583 103.53C33.596 103.329 40.1961 105.454 46.189 109.761C48.5386 111.426 51.8914 114.9 53.2115 116.996C54.5843 119.206 55.8779 121.618 55.7459 121.733C55.6931 121.79 53.8979 120.9 51.7594 119.723C45.4234 116.221 41.4105 114.842 39.8793 115.618C39.3777 115.876 39.5625 116.048 41.5953 117.168C47.3242 120.355 54.3203 128.279 57.4883 135.198C59.1516 138.845 60.3132 144.329 60.3132 148.606C60.3132 152.569 59.1516 156.732 57.4883 158.799L56.7491 159.689L51.865 160.148C36.9488 161.584 25.4911 164.168 11.0765 169.365C1.91552 172.666 -0.170113 173.786 0.516297 174.963C0.621899 175.164 21.1878 175.25 62.3988 175.25C117.84 175.25 124.176 175.193 124.466 174.791C125.021 174.073 124.361 173.614 119.952 171.776C103.531 164.857 91.1752 161.9 70.0813 159.832L67.8373 159.603L66.9661 158.024C63.666 151.994 63.8244 144.242 67.4677 135.658C70.8469 127.705 78.6614 119.063 84.9975 116.249L86.476 115.618L85.5255 115.445C83.6775 115.13 81.4599 115.819 75.8102 118.431C72.7214 119.867 69.9493 121.216 69.6325 121.446C69.2893 121.676 69.0253 121.762 69.0253 121.618C69.0253 121.503 69.8437 120.039 70.8205 118.374C74.3846 112.488 79.4535 108.268 86.1855 105.626C89.6704 104.277 92.3632 103.731 96.8513 103.559C100.917 103.387 101.049 103.415 100.864 103.932C99.7553 106.861 99.1745 108.957 98.1713 113.378C96.4025 121.13 96.1121 121.905 94.0793 124.92C91.624 128.451 89.9608 130.031 87.1096 131.466C83.5191 133.332 81.5655 133.964 79.0574 134.107C76.8398 134.251 73.6454 133.792 73.883 133.361C73.9622 133.246 73.7774 133.016 73.487 132.815C73.0382 132.5 72.9062 132.586 72.4309 133.39C70.7149 136.404 68.6557 142.032 68.3389 144.558C68.1805 145.879 68.2069 145.936 68.8933 146.137C70.3981 146.539 76.4438 146.051 79.1102 145.305C87.5584 142.922 94.9505 136.261 98.5937 127.791C99.993 124.518 100.811 121.762 101.63 117.398C102.026 115.331 103.108 111.081 104.059 107.952C106.487 99.7692 106.408 99.5395 100.811 99.2524C96.4817 99.0514 92.8384 99.4821 88.3768 100.717C80.9583 102.841 75.863 105.856 71.1901 110.966C67.9429 114.527 64.3788 120.613 63.2172 124.575C62.7156 126.298 62.5572 126.327 62.0292 124.805C61.3164 122.709 58.8347 117.685 57.3827 115.388C55.7459 112.775 52.2874 109.043 49.5946 106.976C45.4498 103.76 39.1929 100.889 34.0448 99.8553C31.6952 99.3959 24.9631 99.1088 21.9798 99.3672ZM47.113 162.876C47.113 163.306 45.8722 163.594 39.0609 164.914C35.4968 165.603 28.0783 167.785 22.0062 169.939C17.2013 171.633 15.9077 171.948 18.4686 170.771C25.0951 167.785 34.3616 164.972 43.0209 163.335C47.1658 162.56 47.113 162.56 47.113 162.876ZM86.0535 164.225C90.4096 165.144 95.0033 166.379 98.8049 167.671C102.263 168.848 106.065 170.369 105.907 170.542C105.775 170.685 103.451 169.967 97.8545 168.101C95.9009 167.441 94.2377 166.981 94.1057 167.068C93.9737 167.154 93.8417 167.096 93.7889 166.953C93.6833 166.551 90.6208 165.747 83.8887 164.311C80.6415 163.622 78.0014 162.962 78.0014 162.876C78.0014 162.675 81.4071 163.249 86.0535 164.225ZM68.7613 164.484C77.4998 165.345 86.9512 167.785 95.1089 171.231C98.3297 172.58 97.5641 172.58 94.0793 171.231C90.0136 169.623 83.4399 167.671 78.7934 166.637C73.5662 165.489 68.8933 165.058 62.1612 165.058C55.8251 165.087 53.5019 165.345 47.113 166.781C45.4497 167.154 43.6017 167.527 43.0473 167.642C41.7009 167.872 36.5 169.537 32.4872 170.972C30.7711 171.604 29.2927 172.035 29.2399 171.977C29.0287 171.776 35.312 169.25 38.5593 168.245C41.9913 167.182 49.225 165.431 52.261 164.914C57.5939 164.024 62.9796 163.881 68.7613 164.484ZM69.0517 167.958C70.6621 168.187 73.3814 168.762 75.071 169.221C78.239 170.111 82.8591 171.776 82.6479 172.006C82.5951 172.063 81.1959 171.661 79.5591 171.116C77.8958 170.57 74.939 169.738 72.9854 169.307C69.6325 168.561 69.0253 168.503 62.8212 168.503C56.4323 168.503 56.0891 168.532 52.1026 169.451C49.8322 169.967 47.113 170.685 46.057 171.087C43.3641 172.092 42.8625 171.977 45.2649 170.915C47.509 169.91 52.4987 168.532 55.9835 167.958C59.2044 167.412 65.4612 167.412 69.0517 167.958Z" fill="#3C722C"/>
<path d="M246.62 0.467991C246.519 0.701891 246.587 0.935791 246.756 0.935791C246.959 0.935791 247.128 0.701891 247.128 0.467991C247.128 0.187312 247.06 0.000191733 246.993 0.000191733C246.891 0.000191733 246.722 0.187312 246.62 0.467991Z" fill="black"/>
<path d="M125.846 89.5833L125 90.706V106.798C125 121.955 125.034 122.984 125.643 124.013C126.286 125.136 126.387 125.136 133.864 125.276C141.069 125.417 141.475 125.37 142.321 124.481C143.37 123.312 143.708 121.019 143.099 118.961C142.423 116.762 141.611 116.341 138.329 116.716C136.773 116.903 134.506 116.903 133.288 116.716L131.089 116.388V103.571V90.706L130.244 89.5833C129.093 87.946 126.996 87.946 125.846 89.5833Z" fill="#29280F"/>
<path d="M152.843 89.0691C145.062 92.5776 141.171 104.787 144.588 114.892C145.941 118.868 147.971 121.768 150.677 123.64C152.673 124.996 153.181 125.136 155.955 125.136C160.827 125.136 164.345 122.751 166.781 117.792C170.604 109.98 169.995 100.577 165.258 93.981C162.687 90.379 160.15 88.7417 156.835 88.5545C155.278 88.461 153.688 88.6949 152.843 89.0691ZM158.594 97.9105C160.015 98.7526 162.011 101.887 162.552 104.085C163.432 107.688 162.349 112.225 160.049 114.798C158.864 116.108 158.56 116.248 156.293 116.248C154.027 116.248 153.722 116.108 152.504 114.798C150.373 112.412 149.663 110.26 149.764 106.565C149.866 103.992 150.069 103.056 150.914 101.419C152.775 97.7702 155.887 96.3668 158.594 97.9105Z" fill="#29280F"/>
<path d="M180.11 89.1159C176.422 90.9871 173.885 94.1214 172.16 98.9397C171.246 101.513 171.178 102.168 171.178 106.892C171.178 111.757 171.246 112.225 172.261 115.126C173.58 118.868 176.016 122.143 178.723 123.873C180.38 124.949 181.091 125.136 183.865 125.136C187.62 125.09 189.954 123.967 191.646 121.301C193.168 118.962 192.999 117.792 190.834 115.547L189.007 113.629L187.383 115.079C184.744 117.371 181.801 116.95 179.501 114.003C176.625 110.214 176.355 104.6 178.858 100.343C181.125 96.6007 184.508 95.8522 187.248 98.4719C188.601 99.735 188.635 99.7817 189.379 98.8929C191.409 96.5539 192.322 95.1973 192.322 94.4488C192.322 93.2325 189.751 90.4257 187.688 89.3498C185.59 88.2739 182.004 88.1335 180.11 89.1159Z" fill="#29280F"/>
<path d="M203.216 88.7414C202.573 89.0689 202.133 90.4255 198.277 104.226C196.315 111.196 194.319 117.979 193.845 119.289C193.371 120.552 192.999 122.002 192.999 122.47C192.999 124.622 196.044 126.072 198.04 124.902C198.784 124.481 199.224 123.686 199.799 121.721C200.205 120.224 200.712 118.774 200.882 118.447C201.118 118.072 202.539 117.885 205.855 117.885H210.489L211.437 120.926C212.485 124.435 213.264 125.37 215.057 125.37C218.034 125.37 219.015 123.686 218.034 120.224C212.688 101.699 209.17 90.0045 208.696 89.3028C208.223 88.6011 207.682 88.414 205.889 88.4607C204.671 88.4607 203.453 88.6011 203.216 88.7414ZM207.14 105.021L208.493 109.699L205.956 109.839C204.535 109.933 203.351 109.933 203.317 109.839C203.25 109.746 203.723 107.594 204.366 105.021C204.975 102.448 205.516 100.249 205.516 100.156C205.516 99.5944 205.922 100.764 207.14 105.021Z" fill="#29280F"/>
<path d="M222.939 89.5835L222.093 90.7063V107.032C222.093 123.031 222.093 123.359 222.804 124.247C223.48 125.09 224.123 125.136 231.633 125.136C240.937 125.136 240.7 125.23 240.7 120.926C240.7 116.95 240.362 116.716 233.799 116.716H228.352L228.25 103.524L228.183 90.332L227.269 89.3964C226.018 87.993 223.988 88.0866 222.939 89.5835Z" fill="#29280F"/>
<path d="M250.68 89.0225C248.549 90.192 247.466 91.2679 246.451 93.2794C243.136 100.016 245.267 107.501 251.154 109.746C255.822 111.524 257.412 112.833 257.209 114.751C257.142 115.406 256.634 116.108 255.788 116.669C254.672 117.418 254.266 117.465 252.845 117.044C251.932 116.716 250.578 115.968 249.834 115.313C249.09 114.658 248.278 114.143 248.007 114.143C247.737 114.143 246.789 115.079 245.876 116.202C244.286 118.26 244.252 118.307 244.76 119.57C245.436 121.301 248.143 123.78 250.274 124.669C253.725 126.072 258.089 125.277 260.558 122.704C263.536 119.663 264.483 113.348 262.588 108.904C261.37 106.004 260.288 105.021 256.228 103.15C251.593 100.998 250.071 98.893 251.932 97.1154C253.183 95.8991 255.585 96.1798 257.818 97.7703L259.78 99.2205L261.472 96.8347L263.197 94.4489L261.472 92.2035C260.355 90.8001 259.104 89.7242 257.954 89.2096C255.924 88.3208 252.202 88.2272 250.68 89.0225Z" fill="#29280F"/>
<path d="M269.287 88.975C268.915 89.2557 268.509 89.7235 268.373 90.0042C268.238 90.2849 268.103 97.8164 268.103 106.705C268.103 121.487 268.17 123.031 268.712 123.92C269.287 124.949 269.49 124.949 277.711 124.996C286.067 125.042 286.168 124.996 286.777 123.966C287.691 122.423 287.589 119.242 286.608 117.979C285.864 116.996 285.492 116.949 280.552 116.949C277.643 116.949 275.038 116.809 274.734 116.669C274.328 116.435 274.192 115.686 274.192 113.628V110.868H279.098C283.902 110.868 284.071 110.821 284.849 109.699C285.83 108.389 285.965 105.956 285.221 104.506C284.781 103.711 284.172 103.57 279.537 103.383L274.361 103.149V100.109V97.0679L280.214 96.834C285.898 96.6001 286.101 96.5534 286.743 95.4774C287.082 94.8693 287.386 93.6998 287.386 92.8577C287.386 88.6943 286.777 88.4137 277.508 88.4137C272.535 88.4604 269.727 88.6008 269.287 88.975Z" fill="#29280F"/>
<path d="M292.63 89.5835L291.784 90.7062V106.799C291.784 121.955 291.818 122.984 292.427 124.014C293.07 125.136 293.171 125.136 300.479 125.277C308.598 125.464 309.782 125.277 310.763 123.92C311.643 122.704 311.609 119.803 310.695 118.166L310.019 116.95H304.132H298.28L298.043 114.377C297.941 112.973 297.907 111.617 298.043 111.336C298.178 111.055 300.106 110.868 302.914 110.868C307.008 110.868 307.718 110.775 308.395 109.98C309.41 108.857 309.511 105.816 308.564 104.366C307.955 103.477 307.549 103.384 303.05 103.384H298.212V100.109V96.8344H303.76C308.733 96.8344 309.376 96.7408 310.12 95.8988C311.609 94.3083 311.575 90.0045 310.053 88.8818C309.68 88.6011 305.993 88.414 301.426 88.414H293.442L292.63 89.5835Z" fill="#29280F"/>
<path d="M316.176 89.5837C315.465 90.8468 315.465 91.221 315.465 106.892C315.465 126.493 315.093 125.043 320.303 125.277C331.399 125.838 337.354 120.786 338.808 109.606C339.823 101.606 336.745 93.8407 331.095 90.1451C328.862 88.6481 328.761 88.6481 322.874 88.5078L316.92 88.3206L316.176 89.5837ZM327.407 97.3492C328.997 97.9573 331.298 100.717 331.941 102.776C332.583 104.928 332.482 108.904 331.738 111.102C330.486 114.892 328.321 116.482 324.43 116.482H321.893V106.658V96.8346H324.024C325.175 96.8346 326.697 97.0685 327.407 97.3492Z" fill="#29280F"/>
<path d="M251.129 137.587C249.843 138.149 247.983 140.534 247.306 142.546C245.817 147.13 247.34 152.276 250.79 154.288C255.764 157.141 260.94 150.966 259.519 143.856C259.079 141.47 257.387 138.71 255.899 137.868C254.782 137.213 252.482 137.073 251.129 137.587ZM254.376 141.938C257.726 143.528 256.812 150.779 253.26 150.779C252.279 150.779 251.738 150.405 250.858 149.189C249.539 147.364 249.403 146.054 250.384 143.856C251.366 141.657 252.55 141.049 254.376 141.938Z" fill="#29280F"/>
<path d="M208.551 137.602C208.111 138.164 208.28 153.414 208.72 154.022C209.904 155.659 211.697 153.788 211.697 150.981V149.438H213.862C215.723 149.438 216.196 149.25 217.076 148.221C218.598 146.444 219.038 143.918 218.328 141.298C217.414 138.023 216.264 137.275 212.137 137.275C210.276 137.275 208.652 137.415 208.551 137.602ZM215.452 142C215.892 142.982 215.824 144.572 215.283 145.181C215.012 145.508 214.065 145.695 213.152 145.602C211.595 145.461 211.528 145.414 211.426 143.918C211.223 141.204 211.494 140.877 213.422 141.111C214.369 141.251 215.283 141.672 215.452 142Z" fill="#29280F"/>
<path d="M227.562 138.07C227.426 147.099 227.596 153.367 227.934 153.929C228.407 154.724 229.659 154.771 230.201 154.022C230.437 153.695 230.606 152.572 230.606 151.449C230.606 149.531 230.64 149.438 231.621 149.438C232.501 149.438 232.738 149.765 233.482 151.777C234.362 154.209 235.309 154.958 236.662 154.35C237.474 154.022 237.609 152.619 236.899 151.823C236.628 151.543 236.256 150.701 236.019 149.952C235.681 148.736 235.749 148.502 236.662 147.192C237.542 145.976 237.711 145.415 237.711 143.45C237.711 138.959 235.85 137.275 230.776 137.275C227.934 137.275 227.562 137.368 227.562 138.07ZM234.328 142.14C234.531 142.514 234.666 143.309 234.598 143.918C234.497 144.9 234.294 144.994 232.569 145.134L230.606 145.274V143.356V141.485H232.264C233.279 141.485 234.057 141.719 234.328 142.14Z" fill="#29280F"/>
<path d="M129.962 144.326C128.786 144.992 128.483 146.725 129.317 147.792C130 148.636 130.645 148.68 154.539 148.68C173.73 148.68 179.191 148.547 179.457 148.103C180.329 146.814 180.329 145.97 179.381 144.859L178.471 143.792L154.653 143.837C138.23 143.837 130.569 144.015 129.962 144.326Z" fill="#2B5820"/>
<path d="M284.713 144.503C283.693 145.303 283.617 146.947 284.562 147.925C285.204 148.592 287.47 148.68 309.45 148.68C332.337 148.68 333.697 148.636 334.49 147.881C335.585 146.814 335.283 145.037 333.923 144.326C333.206 143.926 326.559 143.792 309.261 143.792C288.414 143.792 285.468 143.881 284.713 144.503Z" fill="#2B5820"/>
<path d="M189.421 144.681C188.44 147.207 189.523 148.47 192.703 148.47C195.172 148.47 196.187 147.769 196.187 145.991C196.187 144.354 195.24 143.792 192.466 143.792C190.165 143.792 189.726 143.933 189.421 144.681Z" fill="#2B5820"/>
<path d="M268.913 144.354C268.338 145.149 268.406 146.88 269.049 147.722C269.421 148.283 270.233 148.47 272.026 148.47C274.698 148.47 275.273 148.049 275.273 146.131C275.273 145.476 275.104 144.681 274.867 144.354C274.326 143.605 269.454 143.605 268.913 144.354Z" fill="#2B5820"/>
</svg>
