<svg width="167" height="161" viewBox="0 0 167 161" fill="none" xmlns="http://www.w3.org/2000/svg">
<path d="M81.5507 1.34951C78.3299 4.50771 74.713 9.87666 72.6802 14.5278C70.8322 18.777 70.3834 20.9591 70.3834 25.9835C70.357 29.7733 70.4362 30.4911 70.9378 31.9841C72.3898 36.1472 75.2146 39.7073 78.4355 41.4013C79.5179 41.9755 80.6531 42.521 80.9963 42.6358L81.5771 42.8081V36.9224C81.5771 31.0653 81.5771 31.0366 80.9963 30.8644C80.1779 30.5772 78.7787 29.113 78.3827 28.0794C78.1979 27.5626 77.9867 27.3329 77.8283 27.5052C77.5379 27.821 78.5147 30.5198 79.0955 31.0366C79.3067 31.2089 79.4651 31.4673 79.4651 31.6108C79.4651 32.7019 77.0363 30.0317 76.4027 28.2804C76.165 27.5626 75.8482 26.9884 75.7162 26.9884C75.5842 26.9884 75.5578 26.8448 75.6634 26.6438C75.769 26.4429 75.7426 26.4142 75.5314 26.529C75.109 26.8161 75.4258 29.8308 76.0594 31.697C76.7195 33.6206 76.5347 33.678 75.6898 31.8118C74.7394 29.7159 74.4754 28.1368 74.449 25.0935C74.449 22.1362 75.0826 19.0929 76.3235 16.1356C77.3531 13.6378 80.0987 9.21631 82.0259 6.94814L83.5572 5.11064L85.0356 7.0917C87.0948 9.81924 89.6292 13.9823 90.5797 16.1644C91.8469 19.1503 92.7181 23.3134 92.5861 25.8399C92.5333 27.1319 92.3221 28.3378 92.0581 28.8546L91.6093 29.7159L91.7677 28.3665C92.0053 26.2993 91.6357 26.1845 90.8437 28.0507C90.4213 28.9981 89.5764 30.2327 88.89 30.9218C87.6756 32.1563 86.9364 32.6157 87.7284 31.6396C88.23 31.0366 89.7612 27.4765 89.7612 26.931C89.7348 26.73 89.5764 26.9597 89.3916 27.419C89.2068 27.9071 88.4148 28.912 87.6492 29.6585C86.4084 30.8931 85.8804 31.1802 85.1676 31.0366C85.0356 31.0079 85.0092 32.5009 85.0884 34.6542C85.194 36.664 85.2732 39.2767 85.2732 40.4538V42.5497L86.1444 42.3774C87.8076 42.0329 90.3421 40.3964 92.1637 38.5302C96.6517 33.9364 98.0774 26.2993 95.8333 18.8058C94.6717 14.8724 92.7973 11.0538 90.3157 7.46494C87.9132 3.96221 84.27 9.54345e-05 83.478 9.54345e-05C83.1876 9.54345e-05 82.3163 0.603025 81.5507 1.34951Z" fill="black"/>
<path d="M81.5507 1.34951C78.3299 4.50771 74.713 9.87666 72.6802 14.5278C70.8322 18.777 70.3834 20.9591 70.3834 25.9835C70.357 29.7733 70.4362 30.4911 70.9378 31.9841C72.3898 36.1472 75.2146 39.7073 78.4355 41.4013C79.5179 41.9755 80.6531 42.521 80.9963 42.6358L81.5771 42.8081V36.9224C81.5771 31.0653 81.5771 31.0366 80.9963 30.8644C80.1779 30.5772 78.7787 29.113 78.3827 28.0794C78.1979 27.5626 77.9867 27.3329 77.8283 27.5052C77.5379 27.821 78.5147 30.5198 79.0955 31.0366C79.3067 31.2089 79.4651 31.4673 79.4651 31.6108C79.4651 32.7019 77.0363 30.0317 76.4027 28.2804C76.165 27.5626 75.8482 26.9884 75.7162 26.9884C75.5842 26.9884 75.5578 26.8448 75.6634 26.6438C75.769 26.4429 75.7426 26.4142 75.5314 26.529C75.109 26.8161 75.4258 29.8308 76.0594 31.697C76.7195 33.6206 76.5347 33.678 75.6898 31.8118C74.7394 29.7159 74.4754 28.1368 74.449 25.0935C74.449 22.1362 75.0826 19.0929 76.3235 16.1356C77.3531 13.6378 80.0987 9.21631 82.0259 6.94814L83.5572 5.11064L85.0356 7.0917C87.0948 9.81924 89.6292 13.9823 90.5797 16.1644C91.8469 19.1503 92.7181 23.3134 92.5861 25.8399C92.5333 27.1319 92.3221 28.3378 92.0581 28.8546L91.6093 29.7159L91.7677 28.3665C92.0053 26.2993 91.6357 26.1845 90.8437 28.0507C90.4213 28.9981 89.5764 30.2327 88.89 30.9218C87.6756 32.1563 86.9364 32.6157 87.7284 31.6396C88.23 31.0366 89.7612 27.4765 89.7612 26.931C89.7348 26.73 89.5764 26.9597 89.3916 27.419C89.2068 27.9071 88.4148 28.912 87.6492 29.6585C86.4084 30.8931 85.8804 31.1802 85.1676 31.0366C85.0356 31.0079 85.0092 32.5009 85.0884 34.6542C85.194 36.664 85.2732 39.2767 85.2732 40.4538V42.5497L86.1444 42.3774C87.8076 42.0329 90.3421 40.3964 92.1637 38.5302C96.6517 33.9364 98.0774 26.2993 95.8333 18.8058C94.6717 14.8724 92.7973 11.0538 90.3157 7.46494C87.9132 3.96221 84.27 9.54345e-05 83.478 9.54345e-05C83.1876 9.54345e-05 82.3163 0.603025 81.5507 1.34951Z" fill="#3C722C"/>
<path d="M42.9798 34.3672C41.343 34.4821 40.1286 35.3721 40.1286 36.4631C40.1286 36.779 40.8942 39.5926 41.8182 42.7221C42.7422 45.8229 43.6926 49.3543 43.9566 50.5315C44.1942 51.7086 44.7486 54.2352 45.171 56.1301C47.2303 65.4038 53.2232 73.7299 60.8529 77.893C62.8329 78.9553 66.6874 80.3909 68.8522 80.8502C71.5978 81.4245 77.1683 81.3958 77.6171 80.8215C78.2243 80.0176 76.4555 73.9596 74.5283 70.1411C74.0267 69.1362 73.5251 68.2749 73.4195 68.2174C73.3138 68.1313 72.733 68.3323 72.0994 68.6481C70.8058 69.2797 66.8458 69.3946 64.3905 68.9065C62.6481 68.5333 57.368 65.7483 56.2064 64.5711C55.7576 64.1118 55.3088 63.7385 55.2032 63.7385C54.992 63.7385 53.0384 61.3268 51.6391 59.317C50.0815 57.0776 49.5007 55.4411 48.0487 49.2969C47.3359 46.1961 46.3327 42.5211 45.8575 41.143L44.9598 38.6165L47.7583 38.5303C54.596 38.3294 61.1961 40.454 67.189 44.7606C69.5386 46.4258 72.8914 49.8999 74.2115 51.9958C75.5843 54.2065 76.8779 56.6182 76.7459 56.7331C76.6931 56.7905 74.8979 55.9004 72.7594 54.7233C66.4234 51.2206 62.4105 49.8424 60.8793 50.6176C60.3777 50.876 60.5625 51.0483 62.5953 52.168C68.3242 55.3549 75.3203 63.2792 78.4883 70.1985C80.1516 73.8448 81.3132 79.3286 81.3132 83.6065C81.3132 87.5686 80.1516 91.7317 78.4883 93.7989L77.7491 94.6889L72.865 95.1483C57.9488 96.5838 46.4911 99.1678 32.0765 104.365C22.9155 107.666 20.8299 108.786 21.5163 109.963C21.6219 110.164 42.1878 110.25 83.3988 110.25C138.84 110.25 145.176 110.193 145.466 109.791C146.021 109.073 145.361 108.614 140.952 106.776C124.531 99.8569 112.175 96.8997 91.0813 94.8325L88.8373 94.6028L87.9661 93.0237C84.666 86.9944 84.8244 79.2424 88.4677 70.6579C91.8469 62.7049 99.6614 54.0629 105.998 51.2493L107.476 50.6176L106.526 50.4454C104.678 50.1295 102.46 50.8186 96.8102 53.4313C93.7214 54.8668 90.9493 56.2163 90.6325 56.4459C90.2893 56.6756 90.0253 56.7618 90.0253 56.6182C90.0253 56.5034 90.8437 55.0391 91.8205 53.3739C95.3846 47.4881 100.453 43.2676 107.186 40.6262C110.67 39.2768 113.363 38.7313 117.851 38.559C121.917 38.3868 122.049 38.4155 121.864 38.9323C120.755 41.8608 120.175 43.9567 119.171 48.3782C117.402 56.1301 117.112 56.9053 115.079 59.92C112.624 63.4514 110.961 65.0305 108.11 66.4661C104.519 68.3323 102.565 68.9639 100.057 69.1075C97.8398 69.251 94.6454 68.7917 94.883 68.361C94.9622 68.2461 94.7774 68.0165 94.487 67.8155C94.0382 67.4997 93.9062 67.5858 93.4309 68.3897C91.7149 71.4043 89.6557 77.0317 89.3389 79.5583C89.1805 80.879 89.2069 80.9364 89.8933 81.1374C91.3981 81.5393 97.4438 81.0512 100.11 80.3047C108.558 77.9217 115.95 71.2608 119.594 62.7911C120.993 59.518 121.811 56.7618 122.63 52.3977C123.026 50.3305 124.108 46.0813 125.059 42.9518C127.487 34.7692 127.408 34.5395 121.811 34.2524C117.482 34.0514 113.838 34.4821 109.377 35.7167C101.958 37.8413 96.863 40.8559 92.1901 45.9665C88.9429 49.5266 85.3788 55.6133 84.2172 59.5754C83.7156 61.2981 83.5572 61.3268 83.0292 59.8051C82.3164 57.7092 79.8347 52.6848 78.3827 50.3879C76.7459 47.7752 73.2874 44.0428 70.5946 41.9756C66.4498 38.76 60.1929 35.8889 55.0448 34.8553C52.6952 34.3959 45.9631 34.1088 42.9798 34.3672ZM68.113 97.8758C68.113 98.3065 66.8722 98.5936 60.0609 99.9143C56.4968 100.603 49.0783 102.785 43.0062 104.939C38.2013 106.633 36.9077 106.948 39.4686 105.771C46.0951 102.785 55.3616 99.9717 64.0209 98.3352C68.1658 97.56 68.113 97.56 68.113 97.8758ZM107.054 99.2252C111.41 100.144 116.003 101.379 119.805 102.671C123.263 103.848 127.065 105.369 126.907 105.542C126.775 105.685 124.451 104.967 118.855 103.101C116.901 102.441 115.238 101.981 115.106 102.068C114.974 102.154 114.842 102.096 114.789 101.953C114.683 101.551 111.621 100.747 104.889 99.3114C101.641 98.6223 99.0014 97.962 99.0014 97.8758C99.0014 97.6749 102.407 98.2491 107.054 99.2252ZM89.7613 99.4836C98.4998 100.345 107.951 102.785 116.109 106.231C119.33 107.58 118.564 107.58 115.079 106.231C111.014 104.623 104.44 102.671 99.7934 101.637C94.5662 100.489 89.8933 100.058 83.1612 100.058C76.8251 100.087 74.5019 100.345 68.113 101.781C66.4497 102.154 64.6017 102.527 64.0473 102.642C62.7009 102.872 57.5 104.537 53.4872 105.972C51.7711 106.604 50.2927 107.035 50.2399 106.977C50.0287 106.776 56.312 104.25 59.5593 103.245C62.9913 102.182 70.225 100.431 73.261 99.9143C78.5939 99.0243 83.9796 98.8807 89.7613 99.4836ZM90.0517 102.958C91.6621 103.187 94.3814 103.762 96.071 104.221C99.239 105.111 103.859 106.776 103.648 107.006C103.595 107.063 102.196 106.661 100.559 106.116C98.8958 105.57 95.939 104.738 93.9854 104.307C90.6325 103.561 90.0253 103.503 83.8212 103.503C77.4323 103.503 77.0891 103.532 73.1026 104.451C70.8322 104.967 68.113 105.685 67.057 106.087C64.3641 107.092 63.8625 106.977 66.2649 105.915C68.509 104.91 73.4987 103.532 76.9835 102.958C80.2044 102.412 86.4612 102.412 90.0517 102.958Z" fill="black"/>
<path d="M42.9798 34.3672C41.343 34.4821 40.1286 35.3721 40.1286 36.4631C40.1286 36.779 40.8942 39.5926 41.8182 42.7221C42.7422 45.8229 43.6926 49.3543 43.9566 50.5315C44.1942 51.7086 44.7486 54.2352 45.171 56.1301C47.2303 65.4038 53.2232 73.7299 60.8529 77.893C62.8329 78.9553 66.6874 80.3909 68.8522 80.8502C71.5978 81.4245 77.1683 81.3958 77.6171 80.8215C78.2243 80.0176 76.4555 73.9596 74.5283 70.1411C74.0267 69.1362 73.5251 68.2749 73.4195 68.2174C73.3138 68.1313 72.733 68.3323 72.0994 68.6481C70.8058 69.2797 66.8458 69.3946 64.3905 68.9065C62.6481 68.5333 57.368 65.7483 56.2064 64.5711C55.7576 64.1118 55.3088 63.7385 55.2032 63.7385C54.992 63.7385 53.0384 61.3268 51.6391 59.317C50.0815 57.0776 49.5007 55.4411 48.0487 49.2969C47.3359 46.1961 46.3327 42.5211 45.8575 41.143L44.9598 38.6165L47.7583 38.5303C54.596 38.3294 61.1961 40.454 67.189 44.7606C69.5386 46.4258 72.8914 49.8999 74.2115 51.9958C75.5843 54.2065 76.8779 56.6182 76.7459 56.7331C76.6931 56.7905 74.8979 55.9004 72.7594 54.7233C66.4234 51.2206 62.4105 49.8424 60.8793 50.6176C60.3777 50.876 60.5625 51.0483 62.5953 52.168C68.3242 55.3549 75.3203 63.2792 78.4883 70.1985C80.1516 73.8448 81.3132 79.3286 81.3132 83.6065C81.3132 87.5686 80.1516 91.7317 78.4883 93.7989L77.7491 94.6889L72.865 95.1483C57.9488 96.5838 46.4911 99.1678 32.0765 104.365C22.9155 107.666 20.8299 108.786 21.5163 109.963C21.6219 110.164 42.1878 110.25 83.3988 110.25C138.84 110.25 145.176 110.193 145.466 109.791C146.021 109.073 145.361 108.614 140.952 106.776C124.531 99.8569 112.175 96.8997 91.0813 94.8325L88.8373 94.6028L87.9661 93.0237C84.666 86.9944 84.8244 79.2424 88.4677 70.6579C91.8469 62.7049 99.6614 54.0629 105.998 51.2493L107.476 50.6176L106.526 50.4454C104.678 50.1295 102.46 50.8186 96.8102 53.4313C93.7214 54.8668 90.9493 56.2163 90.6325 56.4459C90.2893 56.6756 90.0253 56.7618 90.0253 56.6182C90.0253 56.5034 90.8437 55.0391 91.8205 53.3739C95.3846 47.4881 100.453 43.2676 107.186 40.6262C110.67 39.2768 113.363 38.7313 117.851 38.559C121.917 38.3868 122.049 38.4155 121.864 38.9323C120.755 41.8608 120.175 43.9567 119.171 48.3782C117.402 56.1301 117.112 56.9053 115.079 59.92C112.624 63.4514 110.961 65.0305 108.11 66.4661C104.519 68.3323 102.565 68.9639 100.057 69.1075C97.8398 69.251 94.6454 68.7917 94.883 68.361C94.9622 68.2461 94.7774 68.0165 94.487 67.8155C94.0382 67.4997 93.9062 67.5858 93.4309 68.3897C91.7149 71.4043 89.6557 77.0317 89.3389 79.5583C89.1805 80.879 89.2069 80.9364 89.8933 81.1374C91.3981 81.5393 97.4438 81.0512 100.11 80.3047C108.558 77.9217 115.95 71.2608 119.594 62.7911C120.993 59.518 121.811 56.7618 122.63 52.3977C123.026 50.3305 124.108 46.0813 125.059 42.9518C127.487 34.7692 127.408 34.5395 121.811 34.2524C117.482 34.0514 113.838 34.4821 109.377 35.7167C101.958 37.8413 96.863 40.8559 92.1901 45.9665C88.9429 49.5266 85.3788 55.6133 84.2172 59.5754C83.7156 61.2981 83.5572 61.3268 83.0292 59.8051C82.3164 57.7092 79.8347 52.6848 78.3827 50.3879C76.7459 47.7752 73.2874 44.0428 70.5946 41.9756C66.4498 38.76 60.1929 35.8889 55.0448 34.8553C52.6952 34.3959 45.9631 34.1088 42.9798 34.3672ZM68.113 97.8758C68.113 98.3065 66.8722 98.5936 60.0609 99.9143C56.4968 100.603 49.0783 102.785 43.0062 104.939C38.2013 106.633 36.9077 106.948 39.4686 105.771C46.0951 102.785 55.3616 99.9717 64.0209 98.3352C68.1658 97.56 68.113 97.56 68.113 97.8758ZM107.054 99.2252C111.41 100.144 116.003 101.379 119.805 102.671C123.263 103.848 127.065 105.369 126.907 105.542C126.775 105.685 124.451 104.967 118.855 103.101C116.901 102.441 115.238 101.981 115.106 102.068C114.974 102.154 114.842 102.096 114.789 101.953C114.683 101.551 111.621 100.747 104.889 99.3114C101.641 98.6223 99.0014 97.962 99.0014 97.8758C99.0014 97.6749 102.407 98.2491 107.054 99.2252ZM89.7613 99.4836C98.4998 100.345 107.951 102.785 116.109 106.231C119.33 107.58 118.564 107.58 115.079 106.231C111.014 104.623 104.44 102.671 99.7934 101.637C94.5662 100.489 89.8933 100.058 83.1612 100.058C76.8251 100.087 74.5019 100.345 68.113 101.781C66.4497 102.154 64.6017 102.527 64.0473 102.642C62.7009 102.872 57.5 104.537 53.4872 105.972C51.7711 106.604 50.2927 107.035 50.2399 106.977C50.0287 106.776 56.312 104.25 59.5593 103.245C62.9913 102.182 70.225 100.431 73.261 99.9143C78.5939 99.0243 83.9796 98.8807 89.7613 99.4836ZM90.0517 102.958C91.6621 103.187 94.3814 103.762 96.071 104.221C99.239 105.111 103.859 106.776 103.648 107.006C103.595 107.063 102.196 106.661 100.559 106.116C98.8958 105.57 95.939 104.738 93.9854 104.307C90.6325 103.561 90.0253 103.503 83.8212 103.503C77.4323 103.503 77.0891 103.532 73.1026 104.451C70.8322 104.967 68.113 105.685 67.057 106.087C64.3641 107.092 63.8625 106.977 66.2649 105.915C68.509 104.91 73.4987 103.532 76.9835 102.958C80.2044 102.412 86.4612 102.412 90.0517 102.958Z" fill="#3C722C"/>
<path d="M94.9094 66.0354C94.8302 66.179 94.883 66.3225 95.015 66.3225C95.1734 66.3225 95.3054 66.179 95.3054 66.0354C95.3054 65.8631 95.2526 65.7483 95.1998 65.7483C95.1206 65.7483 94.9886 65.8631 94.9094 66.0354Z" fill="black"/>
<path d="M0.66001 120.73L0 121.419V131.295C0 140.598 0.0264004 141.229 0.501607 141.861C1.00321 142.55 1.08242 142.55 6.9169 142.636C12.5402 142.722 12.857 142.693 13.517 142.148C14.3354 141.43 14.5994 140.023 14.1242 138.76C13.5962 137.411 12.9626 137.152 10.4018 137.382C9.18733 137.497 7.41851 137.497 6.46809 137.382L4.75207 137.181V129.314V121.419L4.09206 120.73C3.19445 119.725 1.55762 119.725 0.66001 120.73Z" fill="#29280F"/>
<path d="M21.7276 120.414C15.6555 122.567 12.6195 130.061 15.2859 136.262C16.3419 138.703 17.926 140.483 20.038 141.631C21.5956 142.464 21.9916 142.55 24.1565 142.55C27.9581 142.55 30.7037 141.086 32.6046 138.042C35.5878 133.248 35.1126 127.477 31.4166 123.429C29.4101 121.218 27.4301 120.213 24.8429 120.098C23.6284 120.041 22.3876 120.184 21.7276 120.414ZM26.2157 125.84C27.3245 126.357 28.8821 128.281 29.3045 129.63C29.9909 131.841 29.1461 134.626 27.3509 136.205C26.4269 137.009 26.1893 137.095 24.4205 137.095C22.6516 137.095 22.414 137.009 21.4636 136.205C19.8004 134.741 19.246 133.42 19.3252 131.152C19.4044 129.573 19.5628 128.998 20.2228 127.994C21.6748 125.754 24.1037 124.893 26.2157 125.84Z" fill="#29280F"/>
<path d="M43.0062 120.443C40.1286 121.591 38.1485 123.515 36.8021 126.472C36.0893 128.051 36.0365 128.453 36.0365 131.353C36.0365 134.339 36.0893 134.626 36.8813 136.406C37.9109 138.703 39.8118 140.713 41.9238 141.775C43.2174 142.435 43.7718 142.55 45.9366 142.55C48.8671 142.521 50.6887 141.832 52.0087 140.196C53.1967 138.76 53.0647 138.042 51.3751 136.664L49.9495 135.487L48.6823 136.377C46.6231 137.784 44.3262 137.526 42.531 135.717C40.287 133.391 40.0758 129.946 42.0294 127.333C43.7982 125.036 46.4383 124.577 48.5767 126.185C49.6327 126.96 49.6591 126.989 50.2399 126.443C51.8239 125.008 52.5367 124.175 52.5367 123.716C52.5367 122.969 50.5303 121.247 48.9199 120.586C47.2831 119.926 44.4846 119.84 43.0062 120.443Z" fill="#29280F"/>
<path d="M61.0376 120.213C60.536 120.414 60.1928 121.247 57.1832 129.716C55.6519 133.994 54.0943 138.157 53.7247 138.961C53.3551 139.736 53.0647 140.626 53.0647 140.914C53.0647 142.234 55.4407 143.124 56.9984 142.406C57.5792 142.148 57.9224 141.66 58.3712 140.454C58.688 139.535 59.084 138.645 59.216 138.444C59.4008 138.215 60.5096 138.1 63.0968 138.1H66.7137L67.4529 139.966C68.2713 142.119 68.8785 142.694 70.2777 142.694C72.601 142.694 73.3666 141.66 72.601 139.535C68.4297 128.166 65.6841 120.988 65.3145 120.557C64.9449 120.127 64.5225 120.012 63.1232 120.041C62.1728 120.041 61.2224 120.127 61.0376 120.213ZM64.1001 130.204L65.1561 133.075L63.176 133.162C62.0672 133.219 61.1432 133.219 61.1168 133.162C61.064 133.104 61.4336 131.783 61.9352 130.204C62.4104 128.625 62.8328 127.276 62.8328 127.218C62.8328 126.874 63.1496 127.592 64.1001 130.204Z" fill="#29280F"/>
<path d="M76.4291 120.73L75.769 121.419V131.439C75.769 141.258 75.769 141.459 76.3235 142.004C76.8515 142.521 77.3531 142.55 83.214 142.55C90.4741 142.55 90.2893 142.607 90.2893 139.966C90.2893 137.526 90.0252 137.382 84.9036 137.382H80.6531L80.5739 129.285L80.5211 121.189L79.8083 120.615C78.8315 119.753 77.2475 119.811 76.4291 120.73Z" fill="#29280F"/>
<path d="M98.0774 120.385C96.4142 121.103 95.5694 121.763 94.7774 122.998C92.1901 127.132 93.8533 131.726 98.447 133.104C102.09 134.195 103.331 134.999 103.173 136.176C103.12 136.578 102.724 137.009 102.064 137.353C101.193 137.813 100.876 137.841 99.767 137.583C99.0542 137.382 97.9982 136.923 97.4174 136.521C96.8366 136.119 96.203 135.803 95.9918 135.803C95.7806 135.803 95.0414 136.377 94.3286 137.066C93.0877 138.33 93.0613 138.358 93.4573 139.133C93.9853 140.196 96.0974 141.717 97.7606 142.263C100.453 143.124 103.859 142.636 105.786 141.057C108.11 139.191 108.849 135.315 107.37 132.587C106.42 130.807 105.575 130.204 102.407 129.056C98.7902 127.735 97.6022 126.443 99.0542 125.352C100.031 124.606 101.905 124.778 103.648 125.754L105.179 126.644L106.499 125.18L107.846 123.716L106.499 122.338C105.628 121.476 104.651 120.816 103.753 120.5C102.169 119.955 99.2654 119.897 98.0774 120.385Z" fill="#29280F"/>
<path d="M112.598 120.356C112.307 120.529 111.99 120.816 111.885 120.988C111.779 121.16 111.674 125.783 111.674 131.238C111.674 140.31 111.726 141.258 112.149 141.803C112.598 142.435 112.756 142.435 119.171 142.464C125.692 142.492 125.771 142.464 126.247 141.832C126.959 140.885 126.88 138.932 126.115 138.157C125.534 137.554 125.243 137.525 121.389 137.525C119.118 137.525 117.086 137.439 116.848 137.353C116.531 137.21 116.426 136.75 116.426 135.487V133.793H120.254C124.003 133.793 124.135 133.764 124.742 133.075C125.507 132.271 125.613 130.778 125.032 129.888C124.689 129.4 124.214 129.314 120.597 129.199L116.558 129.056V127.19V125.323L121.125 125.18C125.56 125.036 125.719 125.007 126.22 124.347C126.484 123.974 126.722 123.256 126.722 122.739C126.722 120.184 126.247 120.012 119.013 120.012C115.132 120.04 112.941 120.127 112.598 120.356Z" fill="#29280F"/>
<path d="M130.814 120.73L130.154 121.419V131.295C130.154 140.598 130.18 141.229 130.656 141.861C131.157 142.55 131.236 142.55 136.939 142.636C143.275 142.751 144.199 142.636 144.965 141.804C145.651 141.057 145.625 139.277 144.912 138.272L144.384 137.526H139.79H135.223L135.038 135.946C134.959 135.085 134.932 134.253 135.038 134.08C135.144 133.908 136.648 133.793 138.84 133.793C142.034 133.793 142.589 133.736 143.117 133.248C143.909 132.559 143.988 130.692 143.249 129.802C142.773 129.257 142.457 129.199 138.945 129.199H135.17V127.19V125.18H139.5C143.381 125.18 143.882 125.122 144.463 124.606C145.625 123.629 145.598 120.988 144.41 120.299C144.12 120.127 141.242 120.012 137.678 120.012H131.448L130.814 120.73Z" fill="#29280F"/>
<path d="M149.189 120.73C148.634 121.505 148.634 121.735 148.634 131.353C148.634 143.383 148.344 142.493 152.409 142.636C161.069 142.981 165.715 139.88 166.85 133.018C167.642 128.108 165.24 123.342 160.831 121.074C159.089 120.155 159.01 120.155 154.416 120.069L149.769 119.954L149.189 120.73ZM157.954 125.496C159.194 125.869 160.99 127.563 161.491 128.826C161.993 130.147 161.914 132.587 161.333 133.937C160.356 136.262 158.666 137.238 155.63 137.238H153.65V131.209V125.18H155.313C156.211 125.18 157.399 125.323 157.954 125.496Z" fill="#29280F"/>
<path d="M98.4276 150.192C97.4244 150.536 95.9724 152 95.4444 153.235C94.2828 156.049 95.4708 159.207 98.1636 160.441C102.045 162.193 106.084 158.403 104.975 154.039C104.632 152.575 103.312 150.881 102.15 150.364C101.279 149.962 99.4837 149.876 98.4276 150.192ZM100.962 152.862C103.576 153.838 102.863 158.288 100.091 158.288C99.3253 158.288 98.9029 158.058 98.2164 157.312C97.1868 156.192 97.0812 155.388 97.8468 154.039C98.6125 152.69 99.5365 152.316 100.962 152.862Z" fill="#29280F"/>
<path d="M65.2007 150.201C64.8575 150.545 64.9895 159.905 65.3327 160.278C66.2567 161.283 67.6559 160.135 67.6559 158.412V157.465H69.3456C70.7976 157.465 71.1672 157.35 71.8536 156.718C73.0416 155.627 73.3848 154.077 72.8304 152.469C72.1176 150.459 71.22 150 67.9991 150C66.5471 150 65.2799 150.086 65.2007 150.201ZM70.5864 152.9C70.9296 153.503 70.8768 154.479 70.4544 154.852C70.2432 155.053 69.504 155.168 68.7912 155.11C67.5767 155.024 67.5239 154.996 67.4447 154.077C67.2863 152.412 67.4975 152.211 69.0024 152.354C69.7416 152.44 70.4544 152.699 70.5864 152.9Z" fill="#29280F"/>
<path d="M80.0365 150.488C79.9309 156.029 80.0629 159.877 80.3269 160.221C80.6965 160.709 81.6733 160.738 82.0957 160.279C82.2805 160.078 82.4125 159.389 82.4125 158.7C82.4125 157.522 82.4389 157.465 83.2045 157.465C83.8909 157.465 84.0757 157.666 84.6565 158.901C85.3429 160.393 86.0821 160.853 87.1382 160.48C87.7718 160.279 87.8774 159.417 87.323 158.929C87.1118 158.757 86.8214 158.24 86.6365 157.781C86.3725 157.034 86.4253 156.891 87.1382 156.087C87.8246 155.34 87.9566 154.996 87.9566 153.79C87.9566 151.034 86.5045 150 82.5445 150C80.3269 150 80.0365 150.058 80.0365 150.488ZM85.3165 152.986C85.4749 153.216 85.5805 153.704 85.5277 154.077C85.4485 154.68 85.2901 154.737 83.9437 154.824L82.4125 154.91V153.733V152.584H83.7061C84.4981 152.584 85.1053 152.728 85.3165 152.986Z" fill="#29280F"/>
<path d="M3.87221 154.327C2.9547 154.736 2.71792 155.8 3.36906 156.455C3.90181 156.973 4.40496 157 23.0512 157C38.0274 157 42.2894 156.918 42.4966 156.645C43.1774 155.855 43.1774 155.336 42.4374 154.655L41.7271 154L23.14 154.027C10.3244 154.027 4.34577 154.136 3.87221 154.327Z" fill="#2B5820"/>
<path d="M124.636 154.436C123.84 154.927 123.781 155.936 124.518 156.536C125.019 156.945 126.787 157 143.94 157C161.8 157 162.861 156.973 163.48 156.509C164.335 155.855 164.099 154.764 163.038 154.327C162.478 154.082 157.291 154 143.793 154C127.524 154 125.225 154.055 124.636 154.436Z" fill="#2B5820"/>
<path d="M50.2726 154.546C49.507 156.096 50.3518 156.871 52.8335 156.871C54.7607 156.871 55.5527 156.44 55.5527 155.349C55.5527 154.345 54.8135 154 52.6487 154C50.8534 154 50.5102 154.086 50.2726 154.546Z" fill="#2B5820"/>
<path d="M112.306 154.345C111.857 154.833 111.91 155.895 112.412 156.412C112.702 156.756 113.336 156.871 114.735 156.871C116.821 156.871 117.269 156.613 117.269 155.436C117.269 155.034 117.137 154.546 116.953 154.345C116.53 153.885 112.728 153.885 112.306 154.345Z" fill="#2B5820"/>
</svg>
