<svg width="297" height="125" viewBox="0 0 297 125" fill="none" xmlns="http://www.w3.org/2000/svg">
<path d="M60.5507 15.3495C57.3299 18.5077 53.713 23.8767 51.6802 28.5278C49.8322 32.777 49.3834 34.9591 49.3834 39.9835C49.357 43.7733 49.4362 44.4911 49.9378 45.9841C51.3898 50.1472 54.2146 53.7073 57.4355 55.4013C58.5179 55.9755 59.6531 56.521 59.9963 56.6358L60.5771 56.8081V50.9224C60.5771 45.0653 60.5771 45.0366 59.9963 44.8644C59.1779 44.5772 57.7787 43.113 57.3827 42.0794C57.1979 41.5626 56.9867 41.3329 56.8283 41.5052C56.5379 41.821 57.5147 44.5198 58.0955 45.0366C58.3067 45.2089 58.4651 45.4673 58.4651 45.6108C58.4651 46.7019 56.0363 44.0317 55.4027 42.2804C55.165 41.5626 54.8482 40.9884 54.7162 40.9884C54.5842 40.9884 54.5578 40.8448 54.6634 40.6438C54.769 40.4429 54.7426 40.4142 54.5314 40.529C54.109 40.8161 54.4258 43.8308 55.0594 45.697C55.7195 47.6206 55.5347 47.678 54.6898 45.8118C53.7394 43.7159 53.4754 42.1368 53.449 39.0935C53.449 36.1362 54.0826 33.0929 55.3235 30.1356C56.3531 27.6378 59.0987 23.2163 61.0259 20.9481L62.5572 19.1106L64.0356 21.0917C66.0948 23.8192 68.6292 27.9823 69.5797 30.1644C70.8469 33.1503 71.7181 37.3134 71.5861 39.8399C71.5333 41.1319 71.3221 42.3378 71.0581 42.8546L70.6093 43.7159L70.7677 42.3665C71.0053 40.2993 70.6357 40.1845 69.8437 42.0507C69.4213 42.9981 68.5764 44.2327 67.89 44.9218C66.6756 46.1563 65.9364 46.6157 66.7284 45.6396C67.23 45.0366 68.7612 41.4765 68.7612 40.931C68.7348 40.73 68.5764 40.9597 68.3916 41.419C68.2068 41.9071 67.4148 42.912 66.6492 43.6585C65.4084 44.8931 64.8804 45.1802 64.1676 45.0366C64.0356 45.0079 64.0092 46.5009 64.0884 48.6542C64.194 50.664 64.2732 53.2767 64.2732 54.4538V56.5497L65.1444 56.3774C66.8076 56.0329 69.3421 54.3964 71.1637 52.5302C75.6517 47.9364 77.0774 40.2993 74.8333 32.8058C73.6717 28.8724 71.7973 25.0538 69.3157 21.4649C66.9132 17.9622 63.27 14.0001 62.478 14.0001C62.1876 14.0001 61.3163 14.603 60.5507 15.3495Z" fill="black"/>
<path d="M60.5507 15.3495C57.3299 18.5077 53.713 23.8767 51.6802 28.5278C49.8322 32.777 49.3834 34.9591 49.3834 39.9835C49.357 43.7733 49.4362 44.4911 49.9378 45.9841C51.3898 50.1472 54.2146 53.7073 57.4355 55.4013C58.5179 55.9755 59.6531 56.521 59.9963 56.6358L60.5771 56.8081V50.9224C60.5771 45.0653 60.5771 45.0366 59.9963 44.8644C59.1779 44.5772 57.7787 43.113 57.3827 42.0794C57.1979 41.5626 56.9867 41.3329 56.8283 41.5052C56.5379 41.821 57.5147 44.5198 58.0955 45.0366C58.3067 45.2089 58.4651 45.4673 58.4651 45.6108C58.4651 46.7019 56.0363 44.0317 55.4027 42.2804C55.165 41.5626 54.8482 40.9884 54.7162 40.9884C54.5842 40.9884 54.5578 40.8448 54.6634 40.6438C54.769 40.4429 54.7426 40.4142 54.5314 40.529C54.109 40.8161 54.4258 43.8308 55.0594 45.697C55.7195 47.6206 55.5347 47.678 54.6898 45.8118C53.7394 43.7159 53.4754 42.1368 53.449 39.0935C53.449 36.1362 54.0826 33.0929 55.3235 30.1356C56.3531 27.6378 59.0987 23.2163 61.0259 20.9481L62.5572 19.1106L64.0356 21.0917C66.0948 23.8192 68.6292 27.9823 69.5797 30.1644C70.8469 33.1503 71.7181 37.3134 71.5861 39.8399C71.5333 41.1319 71.3221 42.3378 71.0581 42.8546L70.6093 43.7159L70.7677 42.3665C71.0053 40.2993 70.6357 40.1845 69.8437 42.0507C69.4213 42.9981 68.5764 44.2327 67.89 44.9218C66.6756 46.1563 65.9364 46.6157 66.7284 45.6396C67.23 45.0366 68.7612 41.4765 68.7612 40.931C68.7348 40.73 68.5764 40.9597 68.3916 41.419C68.2068 41.9071 67.4148 42.912 66.6492 43.6585C65.4084 44.8931 64.8804 45.1802 64.1676 45.0366C64.0356 45.0079 64.0092 46.5009 64.0884 48.6542C64.194 50.664 64.2732 53.2767 64.2732 54.4538V56.5497L65.1444 56.3774C66.8076 56.0329 69.3421 54.3964 71.1637 52.5302C75.6517 47.9364 77.0774 40.2993 74.8333 32.8058C73.6717 28.8724 71.7973 25.0538 69.3157 21.4649C66.9132 17.9622 63.27 14.0001 62.478 14.0001C62.1876 14.0001 61.3163 14.603 60.5507 15.3495Z" fill="#3C722C"/>
<path d="M21.9798 48.3672C20.343 48.4821 19.1286 49.3721 19.1286 50.4631C19.1286 50.779 19.8942 53.5926 20.8182 56.7221C21.7422 59.8229 22.6926 63.3543 22.9566 64.5315C23.1942 65.7086 23.7486 68.2352 24.171 70.1301C26.2303 79.4038 32.2232 87.7299 39.8529 91.893C41.8329 92.9553 45.6874 94.3909 47.8522 94.8502C50.5978 95.4245 56.1683 95.3958 56.6171 94.8215C57.2243 94.0176 55.4555 87.9596 53.5283 84.1411C53.0267 83.1362 52.5251 82.2749 52.4195 82.2174C52.3138 82.1313 51.733 82.3323 51.0994 82.6481C49.8058 83.2797 45.8458 83.3946 43.3905 82.9065C41.6481 82.5333 36.368 79.7483 35.2064 78.5711C34.7576 78.1118 34.3088 77.7385 34.2032 77.7385C33.992 77.7385 32.0384 75.3268 30.6391 73.317C29.0815 71.0776 28.5007 69.4411 27.0487 63.2969C26.3359 60.1961 25.3327 56.5211 24.8575 55.143L23.9598 52.6165L26.7583 52.5303C33.596 52.3294 40.1961 54.454 46.189 58.7606C48.5386 60.4258 51.8914 63.8999 53.2115 65.9958C54.5843 68.2065 55.8779 70.6182 55.7459 70.7331C55.6931 70.7905 53.8979 69.9004 51.7594 68.7233C45.4234 65.2206 41.4105 63.8424 39.8793 64.6176C39.3777 64.876 39.5625 65.0483 41.5953 66.168C47.3242 69.3549 54.3203 77.2792 57.4883 84.1985C59.1516 87.8448 60.3132 93.3286 60.3132 97.6065C60.3132 101.569 59.1516 105.732 57.4883 107.799L56.7491 108.689L51.865 109.148C36.9488 110.584 25.4911 113.168 11.0765 118.365C1.91552 121.666 -0.170113 122.786 0.516297 123.963C0.621899 124.164 21.1878 124.25 62.3988 124.25C117.84 124.25 124.176 124.193 124.466 123.791C125.021 123.073 124.361 122.614 119.952 120.776C103.531 113.857 91.1752 110.9 70.0813 108.832L67.8373 108.603L66.9661 107.024C63.666 100.994 63.8244 93.2424 67.4677 84.6579C70.8469 76.7049 78.6614 68.0629 84.9975 65.2493L86.476 64.6176L85.5255 64.4454C83.6775 64.1295 81.4599 64.8186 75.8102 67.4313C72.7214 68.8668 69.9493 70.2163 69.6325 70.4459C69.2893 70.6756 69.0253 70.7618 69.0253 70.6182C69.0253 70.5034 69.8437 69.0391 70.8205 67.3739C74.3846 61.4881 79.4535 57.2676 86.1855 54.6262C89.6704 53.2768 92.3632 52.7313 96.8513 52.559C100.917 52.3868 101.049 52.4155 100.864 52.9323C99.7553 55.8608 99.1745 57.9567 98.1713 62.3782C96.4025 70.1301 96.1121 70.9053 94.0793 73.92C91.624 77.4514 89.9608 79.0305 87.1096 80.4661C83.5191 82.3323 81.5655 82.9639 79.0574 83.1075C76.8398 83.251 73.6454 82.7917 73.883 82.361C73.9622 82.2461 73.7774 82.0165 73.487 81.8155C73.0382 81.4997 72.9062 81.5858 72.4309 82.3897C70.7149 85.4043 68.6557 91.0317 68.3389 93.5583C68.1805 94.879 68.2069 94.9364 68.8933 95.1374C70.3981 95.5393 76.4438 95.0512 79.1102 94.3047C87.5584 91.9217 94.9505 85.2608 98.5937 76.7911C99.993 73.518 100.811 70.7618 101.63 66.3977C102.026 64.3305 103.108 60.0813 104.059 56.9518C106.487 48.7692 106.408 48.5395 100.811 48.2524C96.4817 48.0514 92.8384 48.4821 88.3768 49.7167C80.9583 51.8413 75.863 54.8559 71.1901 59.9665C67.9429 63.5266 64.3788 69.6133 63.2172 73.5754C62.7156 75.2981 62.5572 75.3268 62.0292 73.8051C61.3164 71.7092 58.8347 66.6848 57.3827 64.3879C55.7459 61.7752 52.2874 58.0428 49.5946 55.9756C45.4498 52.76 39.1929 49.8889 34.0448 48.8553C31.6952 48.3959 24.9631 48.1088 21.9798 48.3672ZM47.113 111.876C47.113 112.306 45.8722 112.594 39.0609 113.914C35.4968 114.603 28.0783 116.785 22.0062 118.939C17.2013 120.633 15.9077 120.948 18.4686 119.771C25.0951 116.785 34.3616 113.972 43.0209 112.335C47.1658 111.56 47.113 111.56 47.113 111.876ZM86.0535 113.225C90.4096 114.144 95.0033 115.379 98.8049 116.671C102.263 117.848 106.065 119.369 105.907 119.542C105.775 119.685 103.451 118.967 97.8545 117.101C95.9009 116.441 94.2377 115.981 94.1057 116.068C93.9737 116.154 93.8417 116.096 93.7889 115.953C93.6833 115.551 90.6208 114.747 83.8887 113.311C80.6415 112.622 78.0014 111.962 78.0014 111.876C78.0014 111.675 81.4071 112.249 86.0535 113.225ZM68.7613 113.484C77.4998 114.345 86.9512 116.785 95.1089 120.231C98.3297 121.58 97.5641 121.58 94.0793 120.231C90.0136 118.623 83.4399 116.671 78.7934 115.637C73.5662 114.489 68.8933 114.058 62.1612 114.058C55.8251 114.087 53.5019 114.345 47.113 115.781C45.4497 116.154 43.6017 116.527 43.0473 116.642C41.7009 116.872 36.5 118.537 32.4872 119.972C30.7711 120.604 29.2927 121.035 29.2399 120.977C29.0287 120.776 35.312 118.25 38.5593 117.245C41.9913 116.182 49.225 114.431 52.261 113.914C57.5939 113.024 62.9796 112.881 68.7613 113.484ZM69.0517 116.958C70.6621 117.187 73.3814 117.762 75.071 118.221C78.239 119.111 82.8591 120.776 82.6479 121.006C82.5951 121.063 81.1959 120.661 79.5591 120.116C77.8958 119.57 74.939 118.738 72.9854 118.307C69.6325 117.561 69.0253 117.503 62.8212 117.503C56.4323 117.503 56.0891 117.532 52.1026 118.451C49.8322 118.967 47.113 119.685 46.057 120.087C43.3641 121.092 42.8625 120.977 45.2649 119.915C47.509 118.91 52.4987 117.532 55.9835 116.958C59.2044 116.412 65.4612 116.412 69.0517 116.958Z" fill="black"/>
<path d="M21.9798 48.3672C20.343 48.4821 19.1286 49.3721 19.1286 50.4631C19.1286 50.779 19.8942 53.5926 20.8182 56.7221C21.7422 59.8229 22.6926 63.3543 22.9566 64.5315C23.1942 65.7086 23.7486 68.2352 24.171 70.1301C26.2303 79.4038 32.2232 87.7299 39.8529 91.893C41.8329 92.9553 45.6874 94.3909 47.8522 94.8502C50.5978 95.4245 56.1683 95.3958 56.6171 94.8215C57.2243 94.0176 55.4555 87.9596 53.5283 84.1411C53.0267 83.1362 52.5251 82.2749 52.4195 82.2174C52.3138 82.1313 51.733 82.3323 51.0994 82.6481C49.8058 83.2797 45.8458 83.3946 43.3905 82.9065C41.6481 82.5333 36.368 79.7483 35.2064 78.5711C34.7576 78.1118 34.3088 77.7385 34.2032 77.7385C33.992 77.7385 32.0384 75.3268 30.6391 73.317C29.0815 71.0776 28.5007 69.4411 27.0487 63.2969C26.3359 60.1961 25.3327 56.5211 24.8575 55.143L23.9598 52.6165L26.7583 52.5303C33.596 52.3294 40.1961 54.454 46.189 58.7606C48.5386 60.4258 51.8914 63.8999 53.2115 65.9958C54.5843 68.2065 55.8779 70.6182 55.7459 70.7331C55.6931 70.7905 53.8979 69.9004 51.7594 68.7233C45.4234 65.2206 41.4105 63.8424 39.8793 64.6176C39.3777 64.876 39.5625 65.0483 41.5953 66.168C47.3242 69.3549 54.3203 77.2792 57.4883 84.1985C59.1516 87.8448 60.3132 93.3286 60.3132 97.6065C60.3132 101.569 59.1516 105.732 57.4883 107.799L56.7491 108.689L51.865 109.148C36.9488 110.584 25.4911 113.168 11.0765 118.365C1.91552 121.666 -0.170113 122.786 0.516297 123.963C0.621899 124.164 21.1878 124.25 62.3988 124.25C117.84 124.25 124.176 124.193 124.466 123.791C125.021 123.073 124.361 122.614 119.952 120.776C103.531 113.857 91.1752 110.9 70.0813 108.832L67.8373 108.603L66.9661 107.024C63.666 100.994 63.8244 93.2424 67.4677 84.6579C70.8469 76.7049 78.6614 68.0629 84.9975 65.2493L86.476 64.6176L85.5255 64.4454C83.6775 64.1295 81.4599 64.8186 75.8102 67.4313C72.7214 68.8668 69.9493 70.2163 69.6325 70.4459C69.2893 70.6756 69.0253 70.7618 69.0253 70.6182C69.0253 70.5034 69.8437 69.0391 70.8205 67.3739C74.3846 61.4881 79.4535 57.2676 86.1855 54.6262C89.6704 53.2768 92.3632 52.7313 96.8513 52.559C100.917 52.3868 101.049 52.4155 100.864 52.9323C99.7553 55.8608 99.1745 57.9567 98.1713 62.3782C96.4025 70.1301 96.1121 70.9053 94.0793 73.92C91.624 77.4514 89.9608 79.0305 87.1096 80.4661C83.5191 82.3323 81.5655 82.9639 79.0574 83.1075C76.8398 83.251 73.6454 82.7917 73.883 82.361C73.9622 82.2461 73.7774 82.0165 73.487 81.8155C73.0382 81.4997 72.9062 81.5858 72.4309 82.3897C70.7149 85.4043 68.6557 91.0317 68.3389 93.5583C68.1805 94.879 68.2069 94.9364 68.8933 95.1374C70.3981 95.5393 76.4438 95.0512 79.1102 94.3047C87.5584 91.9217 94.9505 85.2608 98.5937 76.7911C99.993 73.518 100.811 70.7618 101.63 66.3977C102.026 64.3305 103.108 60.0813 104.059 56.9518C106.487 48.7692 106.408 48.5395 100.811 48.2524C96.4817 48.0514 92.8384 48.4821 88.3768 49.7167C80.9583 51.8413 75.863 54.8559 71.1901 59.9665C67.9429 63.5266 64.3788 69.6133 63.2172 73.5754C62.7156 75.2981 62.5572 75.3268 62.0292 73.8051C61.3164 71.7092 58.8347 66.6848 57.3827 64.3879C55.7459 61.7752 52.2874 58.0428 49.5946 55.9756C45.4498 52.76 39.1929 49.8889 34.0448 48.8553C31.6952 48.3959 24.9631 48.1088 21.9798 48.3672ZM47.113 111.876C47.113 112.306 45.8722 112.594 39.0609 113.914C35.4968 114.603 28.0783 116.785 22.0062 118.939C17.2013 120.633 15.9077 120.948 18.4686 119.771C25.0951 116.785 34.3616 113.972 43.0209 112.335C47.1658 111.56 47.113 111.56 47.113 111.876ZM86.0535 113.225C90.4096 114.144 95.0033 115.379 98.8049 116.671C102.263 117.848 106.065 119.369 105.907 119.542C105.775 119.685 103.451 118.967 97.8545 117.101C95.9009 116.441 94.2377 115.981 94.1057 116.068C93.9737 116.154 93.8417 116.096 93.7889 115.953C93.6833 115.551 90.6208 114.747 83.8887 113.311C80.6415 112.622 78.0014 111.962 78.0014 111.876C78.0014 111.675 81.4071 112.249 86.0535 113.225ZM68.7613 113.484C77.4998 114.345 86.9512 116.785 95.1089 120.231C98.3297 121.58 97.5641 121.58 94.0793 120.231C90.0136 118.623 83.4399 116.671 78.7934 115.637C73.5662 114.489 68.8933 114.058 62.1612 114.058C55.8251 114.087 53.5019 114.345 47.113 115.781C45.4497 116.154 43.6017 116.527 43.0473 116.642C41.7009 116.872 36.5 118.537 32.4872 119.972C30.7711 120.604 29.2927 121.035 29.2399 120.977C29.0287 120.776 35.312 118.25 38.5593 117.245C41.9913 116.182 49.225 114.431 52.261 113.914C57.5939 113.024 62.9796 112.881 68.7613 113.484ZM69.0517 116.958C70.6621 117.187 73.3814 117.762 75.071 118.221C78.239 119.111 82.8591 120.776 82.6479 121.006C82.5951 121.063 81.1959 120.661 79.5591 120.116C77.8958 119.57 74.939 118.738 72.9854 118.307C69.6325 117.561 69.0253 117.503 62.8212 117.503C56.4323 117.503 56.0891 117.532 52.1026 118.451C49.8322 118.967 47.113 119.685 46.057 120.087C43.3641 121.092 42.8625 120.977 45.2649 119.915C47.509 118.91 52.4987 117.532 55.9835 116.958C59.2044 116.412 65.4612 116.412 69.0517 116.958Z" fill="#3C722C"/>
<path d="M224.909 0.287109C224.83 0.430664 224.883 0.574219 225.015 0.574219C225.173 0.574219 225.305 0.430664 225.305 0.287109C225.305 0.114844 225.253 7.45058e-09 225.2 7.45058e-09C225.121 7.45058e-09 224.989 0.114844 224.909 0.287109Z" fill="black"/>
<path d="M130.66 54.9813L130 55.6703V65.5469C130 74.8493 130.026 75.4809 130.502 76.1125C131.003 76.8016 131.082 76.8016 136.917 76.8877C142.54 76.9739 142.857 76.9452 143.517 76.3996C144.335 75.6819 144.599 74.275 144.124 73.0118C143.596 71.6623 142.963 71.4039 140.402 71.6336C139.187 71.7485 137.419 71.7485 136.468 71.6336L134.752 71.4327V63.5659V55.6703L134.092 54.9813C133.194 53.9764 131.558 53.9764 130.66 54.9813Z" fill="#29280F"/>
<path d="M151.728 54.6656C145.656 56.8189 142.619 64.3125 145.286 70.5141C146.342 72.9545 147.926 74.7346 150.038 75.883C151.596 76.7156 151.992 76.8018 154.156 76.8018C157.958 76.8018 160.704 75.3375 162.605 72.2941C165.588 67.4994 165.113 61.7285 161.417 57.6803C159.41 55.4695 157.43 54.4647 154.843 54.3498C153.628 54.2924 152.388 54.4359 151.728 54.6656ZM156.216 60.092C157.324 60.6088 158.882 62.5324 159.305 63.8818C159.991 66.0926 159.146 68.8775 157.351 70.4566C156.427 71.2605 156.189 71.3467 154.42 71.3467C152.652 71.3467 152.414 71.2605 151.464 70.4566C149.8 68.9924 149.246 67.6717 149.325 65.4035C149.404 63.8244 149.563 63.2502 150.223 62.2453C151.675 60.0059 154.104 59.1445 156.216 60.092Z" fill="#29280F"/>
<path d="M173.006 54.6943C170.129 55.8428 168.149 57.7664 166.802 60.7236C166.089 62.3027 166.036 62.7047 166.036 65.6045C166.036 68.5904 166.089 68.8775 166.881 70.6576C167.911 72.9545 169.812 74.9643 171.924 76.0266C173.217 76.6869 173.772 76.8018 175.937 76.8018C178.867 76.773 180.689 76.084 182.009 74.4475C183.197 73.0119 183.065 72.2941 181.375 70.916L179.95 69.7389L178.682 70.6289C176.623 72.0357 174.326 71.7773 172.531 69.9686C170.287 67.643 170.076 64.1977 172.029 61.585C173.798 59.2881 176.438 58.8287 178.577 60.4365C179.633 61.2117 179.659 61.2404 180.24 60.6949C181.824 59.2594 182.537 58.4268 182.537 57.9674C182.537 57.2209 180.53 55.4982 178.92 54.8379C177.283 54.1775 174.485 54.0914 173.006 54.6943Z" fill="#29280F"/>
<path d="M191.038 54.4647C190.536 54.6656 190.193 55.4982 187.183 63.968C185.652 68.2459 184.094 72.409 183.725 73.2129C183.355 73.9881 183.065 74.8781 183.065 75.1652C183.065 76.4859 185.441 77.376 186.998 76.6582C187.579 76.3998 187.922 75.9117 188.371 74.7059C188.688 73.7871 189.084 72.8971 189.216 72.6961C189.401 72.4664 190.51 72.3516 193.097 72.3516H196.714L197.453 74.2178C198.271 76.3711 198.879 76.9453 200.278 76.9453C202.601 76.9453 203.367 75.9117 202.601 73.7871C198.43 62.4176 195.684 55.2398 195.314 54.8092C194.945 54.3785 194.522 54.2637 193.123 54.2924C192.173 54.2924 191.222 54.3785 191.038 54.4647ZM194.1 64.4561L195.156 67.3271L193.176 67.4133C192.067 67.4707 191.143 67.4707 191.117 67.4133C191.064 67.3559 191.434 66.0352 191.935 64.4561C192.41 62.877 192.833 61.5275 192.833 61.4701C192.833 61.1256 193.15 61.8434 194.1 64.4561Z" fill="#29280F"/>
<path d="M206.429 54.9813L205.769 55.6704V65.6905C205.769 75.5097 205.769 75.7106 206.323 76.2562C206.851 76.7729 207.353 76.8017 213.214 76.8017C220.474 76.8017 220.289 76.8591 220.289 74.2177C220.289 71.7772 220.025 71.6337 214.904 71.6337H210.653L210.574 63.5372L210.521 55.4407L209.808 54.8665C208.831 54.0052 207.247 54.0626 206.429 54.9813Z" fill="#29280F"/>
<path d="M228.077 54.6369C226.414 55.3547 225.569 56.015 224.777 57.2496C222.19 61.384 223.853 65.9777 228.447 67.3559C232.09 68.4469 233.331 69.2508 233.173 70.4279C233.12 70.8299 232.724 71.2605 232.064 71.6051C231.193 72.0644 230.876 72.0932 229.767 71.8348C229.054 71.6338 227.998 71.1744 227.417 70.7725C226.837 70.3705 226.203 70.0547 225.992 70.0547C225.781 70.0547 225.041 70.6289 224.329 71.318C223.088 72.5812 223.061 72.61 223.457 73.3852C223.985 74.4475 226.097 75.9691 227.761 76.5146C230.453 77.376 233.859 76.8879 235.786 75.3088C238.11 73.4426 238.849 69.5666 237.37 66.8391C236.42 65.059 235.575 64.456 232.407 63.3076C228.79 61.9869 227.602 60.6949 229.054 59.6039C230.031 58.8574 231.905 59.0297 233.648 60.0059L235.179 60.8959L236.499 59.4316L237.846 57.9674L236.499 56.5893C235.628 55.7279 234.651 55.0676 233.753 54.7518C232.169 54.2062 229.265 54.1488 228.077 54.6369Z" fill="#29280F"/>
<path d="M242.598 54.608C242.307 54.7803 241.99 55.0674 241.885 55.2397C241.779 55.4119 241.674 60.0344 241.674 65.4895C241.674 74.5621 241.726 75.5096 242.149 76.0551C242.598 76.6867 242.756 76.6867 249.171 76.7155C255.692 76.7442 255.771 76.7155 256.247 76.0838C256.959 75.1363 256.88 73.184 256.115 72.4088C255.534 71.8059 255.243 71.7772 251.389 71.7772C249.118 71.7772 247.086 71.691 246.848 71.6049C246.531 71.4613 246.426 71.002 246.426 69.7387V68.0447H250.254C254.003 68.0447 254.135 68.016 254.742 67.327C255.507 66.5231 255.613 65.0301 255.032 64.1401C254.689 63.652 254.214 63.5658 250.597 63.451L246.558 63.3074V61.4412V59.575L251.125 59.4315C255.56 59.2879 255.719 59.2592 256.22 58.5988C256.484 58.2256 256.722 57.5078 256.722 56.991C256.722 54.4358 256.247 54.2635 249.013 54.2635C245.132 54.2922 242.941 54.3783 242.598 54.608Z" fill="#29280F"/>
<path d="M260.814 54.9814L260.154 55.6704V65.547C260.154 74.8494 260.18 75.481 260.656 76.1126C261.157 76.8017 261.236 76.8017 266.939 76.8878C273.275 77.0027 274.199 76.8878 274.965 76.0552C275.651 75.3087 275.625 73.5286 274.912 72.5238L274.384 71.7773H269.79H265.223L265.038 70.1982C264.959 69.3368 264.932 68.5042 265.038 68.332C265.144 68.1597 266.648 68.0449 268.84 68.0449C272.034 68.0449 272.589 67.9874 273.117 67.4994C273.909 66.8103 273.988 64.9441 273.249 64.054C272.773 63.5085 272.457 63.4511 268.945 63.4511H265.17V61.4413V59.4316H269.5C273.381 59.4316 273.882 59.3742 274.463 58.8574C275.625 57.8812 275.598 55.2398 274.41 54.5507C274.12 54.3785 271.242 54.2636 267.678 54.2636H261.448L260.814 54.9814Z" fill="#29280F"/>
<path d="M279.189 54.9813C278.634 55.7565 278.634 55.9862 278.634 65.6044C278.634 77.6343 278.344 76.7442 282.409 76.8878C291.069 77.2323 295.715 74.1315 296.85 67.2696C297.642 62.36 295.24 57.594 290.831 55.3259C289.089 54.4071 289.01 54.4071 284.416 54.321L279.769 54.2061L279.189 54.9813ZM287.954 59.7473C289.194 60.1206 290.99 61.8145 291.491 63.0778C291.993 64.3985 291.914 66.8389 291.333 68.1884C290.356 70.5139 288.666 71.4901 285.63 71.4901H283.65V65.4608V59.4315H285.313C286.211 59.4315 287.399 59.5751 287.954 59.7473Z" fill="#29280F"/>
<path d="M228.428 84.4434C227.424 84.7879 225.972 86.2522 225.444 87.4867C224.283 90.3004 225.471 93.4586 228.164 94.6932C232.045 96.4445 236.084 92.6547 234.975 88.2906C234.632 86.8264 233.312 85.1324 232.15 84.6156C231.279 84.2137 229.484 84.1275 228.428 84.4434ZM230.962 87.1135C233.576 88.0897 232.863 92.5399 230.091 92.5399C229.325 92.5399 228.903 92.3102 228.216 91.5637C227.187 90.444 227.081 89.64 227.847 88.2906C228.612 86.9412 229.536 86.568 230.962 87.1135Z" fill="#29280F"/>
<path d="M195.201 84.4526C194.857 84.7971 194.989 94.1569 195.333 94.5301C196.257 95.535 197.656 94.3866 197.656 92.6639V91.7165H199.346C200.798 91.7165 201.167 91.6016 201.854 90.97C203.042 89.879 203.385 88.3286 202.83 86.7208C202.118 84.711 201.22 84.2516 197.999 84.2516C196.547 84.2516 195.28 84.3377 195.201 84.4526ZM200.586 87.1514C200.93 87.7544 200.877 88.7305 200.454 89.1038C200.243 89.3047 199.504 89.4196 198.791 89.3622C197.577 89.276 197.524 89.2473 197.445 88.3286C197.286 86.6633 197.498 86.4624 199.002 86.6059C199.742 86.692 200.454 86.9504 200.586 87.1514Z" fill="#29280F"/>
<path d="M210.036 84.7399C209.931 90.2811 210.063 94.1284 210.327 94.4729C210.696 94.961 211.673 94.9897 212.096 94.5303C212.28 94.3294 212.412 93.6403 212.412 92.9512C212.412 91.7741 212.439 91.7167 213.205 91.7167C213.891 91.7167 214.076 91.9176 214.657 93.1522C215.343 94.6452 216.082 95.1046 217.138 94.7313C217.772 94.5303 217.877 93.669 217.323 93.1809C217.112 93.0087 216.821 92.4919 216.637 92.0325C216.373 91.286 216.425 91.1425 217.138 90.3385C217.825 89.5921 217.957 89.2475 217.957 88.0417C217.957 85.2854 216.505 84.2518 212.544 84.2518C210.327 84.2518 210.036 84.3093 210.036 84.7399ZM215.317 87.2378C215.475 87.4675 215.581 87.9555 215.528 88.3288C215.449 88.9317 215.29 88.9891 213.944 89.0753L212.412 89.1614V87.9843V86.8358H213.706C214.498 86.8358 215.105 86.9794 215.317 87.2378Z" fill="#29280F"/>
<path d="M133.872 88.579C132.955 88.9881 132.718 90.0517 133.369 90.7063C133.902 91.2244 134.405 91.2517 153.051 91.2517C168.027 91.2517 172.289 91.1699 172.497 90.8972C173.177 90.1063 173.177 89.5881 172.437 88.9063L171.727 88.2517L153.14 88.279C140.324 88.279 134.346 88.3881 133.872 88.579Z" fill="#2B5820"/>
<path d="M254.636 88.6881C253.84 89.179 253.781 90.1881 254.518 90.7881C255.019 91.1972 256.787 91.2517 273.94 91.2517C291.8 91.2517 292.861 91.2244 293.48 90.7608C294.335 90.1063 294.099 89.0153 293.038 88.579C292.478 88.3335 287.291 88.2517 273.793 88.2517C257.524 88.2517 255.225 88.3063 254.636 88.6881Z" fill="#2B5820"/>
<path d="M180.273 88.7972C179.507 90.3476 180.352 91.1228 182.833 91.1228C184.761 91.1228 185.553 90.6921 185.553 89.6011C185.553 88.5962 184.813 88.2517 182.649 88.2517C180.853 88.2517 180.51 88.3378 180.273 88.7972Z" fill="#2B5820"/>
<path d="M242.306 88.5962C241.857 89.0843 241.91 90.1466 242.412 90.6634C242.702 91.008 243.336 91.1228 244.735 91.1228C246.821 91.1228 247.269 90.8644 247.269 89.6873C247.269 89.2853 247.137 88.7972 246.953 88.5962C246.53 88.1369 242.728 88.1369 242.306 88.5962Z" fill="#2B5820"/>
</svg>
