<svg width="388" height="116" viewBox="0 0 388 116" fill="none" xmlns="http://www.w3.org/2000/svg">
<path d="M60.5507 1.34951C57.3299 4.50771 53.713 9.87666 51.6802 14.5278C49.8322 18.777 49.3834 20.9591 49.3834 25.9835C49.357 29.7733 49.4362 30.4911 49.9378 31.9841C51.3898 36.1472 54.2146 39.7073 57.4355 41.4013C58.5179 41.9755 59.6531 42.521 59.9963 42.6358L60.5771 42.8081V36.9224C60.5771 31.0653 60.5771 31.0366 59.9963 30.8644C59.1779 30.5772 57.7787 29.113 57.3827 28.0794C57.1979 27.5626 56.9867 27.3329 56.8283 27.5052C56.5379 27.821 57.5147 30.5198 58.0955 31.0366C58.3067 31.2089 58.4651 31.4673 58.4651 31.6108C58.4651 32.7019 56.0363 30.0317 55.4027 28.2804C55.165 27.5626 54.8482 26.9884 54.7162 26.9884C54.5842 26.9884 54.5578 26.8448 54.6634 26.6438C54.769 26.4429 54.7426 26.4142 54.5314 26.529C54.109 26.8161 54.4258 29.8308 55.0594 31.697C55.7195 33.6206 55.5347 33.678 54.6898 31.8118C53.7394 29.7159 53.4754 28.1368 53.449 25.0935C53.449 22.1362 54.0826 19.0929 55.3235 16.1356C56.3531 13.6378 59.0987 9.21631 61.0259 6.94814L62.5572 5.11064L64.0356 7.0917C66.0948 9.81924 68.6292 13.9823 69.5797 16.1644C70.8469 19.1503 71.7181 23.3134 71.5861 25.8399C71.5333 27.1319 71.3221 28.3378 71.0581 28.8546L70.6093 29.7159L70.7677 28.3665C71.0053 26.2993 70.6357 26.1845 69.8437 28.0507C69.4213 28.9981 68.5764 30.2327 67.89 30.9218C66.6756 32.1563 65.9364 32.6157 66.7284 31.6396C67.23 31.0366 68.7612 27.4765 68.7612 26.931C68.7348 26.73 68.5764 26.9597 68.3916 27.419C68.2068 27.9071 67.4148 28.912 66.6492 29.6585C65.4084 30.8931 64.8804 31.1802 64.1676 31.0366C64.0356 31.0079 64.0092 32.5009 64.0884 34.6542C64.194 36.664 64.2732 39.2767 64.2732 40.4538V42.5497L65.1444 42.3774C66.8076 42.0329 69.3421 40.3964 71.1637 38.5302C75.6517 33.9364 77.0774 26.2993 74.8333 18.8058C73.6717 14.8724 71.7973 11.0538 69.3157 7.46494C66.9132 3.96221 63.27 9.54345e-05 62.478 9.54345e-05C62.1876 9.54345e-05 61.3163 0.603025 60.5507 1.34951Z" fill="black"/>
<path d="M60.5507 1.34951C57.3299 4.50771 53.713 9.87666 51.6802 14.5278C49.8322 18.777 49.3834 20.9591 49.3834 25.9835C49.357 29.7733 49.4362 30.4911 49.9378 31.9841C51.3898 36.1472 54.2146 39.7073 57.4355 41.4013C58.5179 41.9755 59.6531 42.521 59.9963 42.6358L60.5771 42.8081V36.9224C60.5771 31.0653 60.5771 31.0366 59.9963 30.8644C59.1779 30.5772 57.7787 29.113 57.3827 28.0794C57.1979 27.5626 56.9867 27.3329 56.8283 27.5052C56.5379 27.821 57.5147 30.5198 58.0955 31.0366C58.3067 31.2089 58.4651 31.4673 58.4651 31.6108C58.4651 32.7019 56.0363 30.0317 55.4027 28.2804C55.165 27.5626 54.8482 26.9884 54.7162 26.9884C54.5842 26.9884 54.5578 26.8448 54.6634 26.6438C54.769 26.4429 54.7426 26.4142 54.5314 26.529C54.109 26.8161 54.4258 29.8308 55.0594 31.697C55.7195 33.6206 55.5347 33.678 54.6898 31.8118C53.7394 29.7159 53.4754 28.1368 53.449 25.0935C53.449 22.1362 54.0826 19.0929 55.3235 16.1356C56.3531 13.6378 59.0987 9.21631 61.0259 6.94814L62.5572 5.11064L64.0356 7.0917C66.0948 9.81924 68.6292 13.9823 69.5797 16.1644C70.8469 19.1503 71.7181 23.3134 71.5861 25.8399C71.5333 27.1319 71.3221 28.3378 71.0581 28.8546L70.6093 29.7159L70.7677 28.3665C71.0053 26.2993 70.6357 26.1845 69.8437 28.0507C69.4213 28.9981 68.5764 30.2327 67.89 30.9218C66.6756 32.1563 65.9364 32.6157 66.7284 31.6396C67.23 31.0366 68.7612 27.4765 68.7612 26.931C68.7348 26.73 68.5764 26.9597 68.3916 27.419C68.2068 27.9071 67.4148 28.912 66.6492 29.6585C65.4084 30.8931 64.8804 31.1802 64.1676 31.0366C64.0356 31.0079 64.0092 32.5009 64.0884 34.6542C64.194 36.664 64.2732 39.2767 64.2732 40.4538V42.5497L65.1444 42.3774C66.8076 42.0329 69.3421 40.3964 71.1637 38.5302C75.6517 33.9364 77.0774 26.2993 74.8333 18.8058C73.6717 14.8724 71.7973 11.0538 69.3157 7.46494C66.9132 3.96221 63.27 9.54345e-05 62.478 9.54345e-05C62.1876 9.54345e-05 61.3163 0.603025 60.5507 1.34951Z" fill="#3C722C"/>
<path d="M21.9798 34.3672C20.343 34.4821 19.1286 35.3721 19.1286 36.4631C19.1286 36.779 19.8942 39.5926 20.8182 42.7221C21.7422 45.8229 22.6926 49.3543 22.9566 50.5315C23.1942 51.7086 23.7486 54.2352 24.171 56.1301C26.2303 65.4038 32.2232 73.7299 39.8529 77.893C41.8329 78.9553 45.6874 80.3909 47.8522 80.8502C50.5978 81.4245 56.1683 81.3958 56.6171 80.8215C57.2243 80.0176 55.4555 73.9596 53.5283 70.1411C53.0267 69.1362 52.5251 68.2749 52.4195 68.2174C52.3138 68.1313 51.733 68.3323 51.0994 68.6481C49.8058 69.2797 45.8458 69.3946 43.3905 68.9065C41.6481 68.5333 36.368 65.7483 35.2064 64.5711C34.7576 64.1118 34.3088 63.7385 34.2032 63.7385C33.992 63.7385 32.0384 61.3268 30.6391 59.317C29.0815 57.0776 28.5007 55.4411 27.0487 49.2969C26.3359 46.1961 25.3327 42.5211 24.8575 41.143L23.9598 38.6165L26.7583 38.5303C33.596 38.3294 40.1961 40.454 46.189 44.7606C48.5386 46.4258 51.8914 49.8999 53.2115 51.9958C54.5843 54.2065 55.8779 56.6182 55.7459 56.7331C55.6931 56.7905 53.8979 55.9004 51.7594 54.7233C45.4234 51.2206 41.4105 49.8424 39.8793 50.6176C39.3777 50.876 39.5625 51.0483 41.5953 52.168C47.3242 55.3549 54.3203 63.2792 57.4883 70.1985C59.1516 73.8448 60.3132 79.3286 60.3132 83.6065C60.3132 87.5686 59.1516 91.7317 57.4883 93.7989L56.7491 94.6889L51.865 95.1483C36.9488 96.5838 25.4911 99.1678 11.0765 104.365C1.91552 107.666 -0.170113 108.786 0.516297 109.963C0.621899 110.164 21.1878 110.25 62.3988 110.25C117.84 110.25 124.176 110.193 124.466 109.791C125.021 109.073 124.361 108.614 119.952 106.776C103.531 99.8569 91.1752 96.8997 70.0813 94.8325L67.8373 94.6028L66.9661 93.0237C63.666 86.9944 63.8244 79.2424 67.4677 70.6579C70.8469 62.7049 78.6614 54.0629 84.9975 51.2493L86.476 50.6176L85.5255 50.4454C83.6775 50.1295 81.4599 50.8186 75.8102 53.4313C72.7214 54.8668 69.9493 56.2163 69.6325 56.4459C69.2893 56.6756 69.0253 56.7618 69.0253 56.6182C69.0253 56.5034 69.8437 55.0391 70.8205 53.3739C74.3846 47.4881 79.4535 43.2676 86.1855 40.6262C89.6704 39.2768 92.3632 38.7313 96.8513 38.559C100.917 38.3868 101.049 38.4155 100.864 38.9323C99.7553 41.8608 99.1745 43.9567 98.1713 48.3782C96.4025 56.1301 96.1121 56.9053 94.0793 59.92C91.624 63.4514 89.9608 65.0305 87.1096 66.4661C83.5191 68.3323 81.5655 68.9639 79.0574 69.1075C76.8398 69.251 73.6454 68.7917 73.883 68.361C73.9622 68.2461 73.7774 68.0165 73.487 67.8155C73.0382 67.4997 72.9062 67.5858 72.4309 68.3897C70.7149 71.4043 68.6557 77.0317 68.3389 79.5583C68.1805 80.879 68.2069 80.9364 68.8933 81.1374C70.3981 81.5393 76.4438 81.0512 79.1102 80.3047C87.5584 77.9217 94.9505 71.2608 98.5937 62.7911C99.993 59.518 100.811 56.7618 101.63 52.3977C102.026 50.3305 103.108 46.0813 104.059 42.9518C106.487 34.7692 106.408 34.5395 100.811 34.2524C96.4817 34.0514 92.8384 34.4821 88.3768 35.7167C80.9583 37.8413 75.863 40.8559 71.1901 45.9665C67.9429 49.5266 64.3788 55.6133 63.2172 59.5754C62.7156 61.2981 62.5572 61.3268 62.0292 59.8051C61.3164 57.7092 58.8347 52.6848 57.3827 50.3879C55.7459 47.7752 52.2874 44.0428 49.5946 41.9756C45.4498 38.76 39.1929 35.8889 34.0448 34.8553C31.6952 34.3959 24.9631 34.1088 21.9798 34.3672ZM47.113 97.8758C47.113 98.3065 45.8722 98.5936 39.0609 99.9143C35.4968 100.603 28.0783 102.785 22.0062 104.939C17.2013 106.633 15.9077 106.948 18.4686 105.771C25.0951 102.785 34.3616 99.9717 43.0209 98.3352C47.1658 97.56 47.113 97.56 47.113 97.8758ZM86.0535 99.2252C90.4096 100.144 95.0033 101.379 98.8049 102.671C102.263 103.848 106.065 105.369 105.907 105.542C105.775 105.685 103.451 104.967 97.8545 103.101C95.9009 102.441 94.2377 101.981 94.1057 102.068C93.9737 102.154 93.8417 102.096 93.7889 101.953C93.6833 101.551 90.6208 100.747 83.8887 99.3114C80.6415 98.6223 78.0014 97.962 78.0014 97.8758C78.0014 97.6749 81.4071 98.2491 86.0535 99.2252ZM68.7613 99.4836C77.4998 100.345 86.9512 102.785 95.1089 106.231C98.3297 107.58 97.5641 107.58 94.0793 106.231C90.0136 104.623 83.4399 102.671 78.7934 101.637C73.5662 100.489 68.8933 100.058 62.1612 100.058C55.8251 100.087 53.5019 100.345 47.113 101.781C45.4497 102.154 43.6017 102.527 43.0473 102.642C41.7009 102.872 36.5 104.537 32.4872 105.972C30.7711 106.604 29.2927 107.035 29.2399 106.977C29.0287 106.776 35.312 104.25 38.5593 103.245C41.9913 102.182 49.225 100.431 52.261 99.9143C57.5939 99.0243 62.9796 98.8807 68.7613 99.4836ZM69.0517 102.958C70.6621 103.187 73.3814 103.762 75.071 104.221C78.239 105.111 82.8591 106.776 82.6479 107.006C82.5951 107.063 81.1959 106.661 79.5591 106.116C77.8958 105.57 74.939 104.738 72.9854 104.307C69.6325 103.561 69.0253 103.503 62.8212 103.503C56.4323 103.503 56.0891 103.532 52.1026 104.451C49.8322 104.967 47.113 105.685 46.057 106.087C43.3641 107.092 42.8625 106.977 45.2649 105.915C47.509 104.91 52.4987 103.532 55.9835 102.958C59.2044 102.412 65.4612 102.412 69.0517 102.958Z" fill="black"/>
<path d="M21.9798 34.3672C20.343 34.4821 19.1286 35.3721 19.1286 36.4631C19.1286 36.779 19.8942 39.5926 20.8182 42.7221C21.7422 45.8229 22.6926 49.3543 22.9566 50.5315C23.1942 51.7086 23.7486 54.2352 24.171 56.1301C26.2303 65.4038 32.2232 73.7299 39.8529 77.893C41.8329 78.9553 45.6874 80.3909 47.8522 80.8502C50.5978 81.4245 56.1683 81.3958 56.6171 80.8215C57.2243 80.0176 55.4555 73.9596 53.5283 70.1411C53.0267 69.1362 52.5251 68.2749 52.4195 68.2174C52.3138 68.1313 51.733 68.3323 51.0994 68.6481C49.8058 69.2797 45.8458 69.3946 43.3905 68.9065C41.6481 68.5333 36.368 65.7483 35.2064 64.5711C34.7576 64.1118 34.3088 63.7385 34.2032 63.7385C33.992 63.7385 32.0384 61.3268 30.6391 59.317C29.0815 57.0776 28.5007 55.4411 27.0487 49.2969C26.3359 46.1961 25.3327 42.5211 24.8575 41.143L23.9598 38.6165L26.7583 38.5303C33.596 38.3294 40.1961 40.454 46.189 44.7606C48.5386 46.4258 51.8914 49.8999 53.2115 51.9958C54.5843 54.2065 55.8779 56.6182 55.7459 56.7331C55.6931 56.7905 53.8979 55.9004 51.7594 54.7233C45.4234 51.2206 41.4105 49.8424 39.8793 50.6176C39.3777 50.876 39.5625 51.0483 41.5953 52.168C47.3242 55.3549 54.3203 63.2792 57.4883 70.1985C59.1516 73.8448 60.3132 79.3286 60.3132 83.6065C60.3132 87.5686 59.1516 91.7317 57.4883 93.7989L56.7491 94.6889L51.865 95.1483C36.9488 96.5838 25.4911 99.1678 11.0765 104.365C1.91552 107.666 -0.170113 108.786 0.516297 109.963C0.621899 110.164 21.1878 110.25 62.3988 110.25C117.84 110.25 124.176 110.193 124.466 109.791C125.021 109.073 124.361 108.614 119.952 106.776C103.531 99.8569 91.1752 96.8997 70.0813 94.8325L67.8373 94.6028L66.9661 93.0237C63.666 86.9944 63.8244 79.2424 67.4677 70.6579C70.8469 62.7049 78.6614 54.0629 84.9975 51.2493L86.476 50.6176L85.5255 50.4454C83.6775 50.1295 81.4599 50.8186 75.8102 53.4313C72.7214 54.8668 69.9493 56.2163 69.6325 56.4459C69.2893 56.6756 69.0253 56.7618 69.0253 56.6182C69.0253 56.5034 69.8437 55.0391 70.8205 53.3739C74.3846 47.4881 79.4535 43.2676 86.1855 40.6262C89.6704 39.2768 92.3632 38.7313 96.8513 38.559C100.917 38.3868 101.049 38.4155 100.864 38.9323C99.7553 41.8608 99.1745 43.9567 98.1713 48.3782C96.4025 56.1301 96.1121 56.9053 94.0793 59.92C91.624 63.4514 89.9608 65.0305 87.1096 66.4661C83.5191 68.3323 81.5655 68.9639 79.0574 69.1075C76.8398 69.251 73.6454 68.7917 73.883 68.361C73.9622 68.2461 73.7774 68.0165 73.487 67.8155C73.0382 67.4997 72.9062 67.5858 72.4309 68.3897C70.7149 71.4043 68.6557 77.0317 68.3389 79.5583C68.1805 80.879 68.2069 80.9364 68.8933 81.1374C70.3981 81.5393 76.4438 81.0512 79.1102 80.3047C87.5584 77.9217 94.9505 71.2608 98.5937 62.7911C99.993 59.518 100.811 56.7618 101.63 52.3977C102.026 50.3305 103.108 46.0813 104.059 42.9518C106.487 34.7692 106.408 34.5395 100.811 34.2524C96.4817 34.0514 92.8384 34.4821 88.3768 35.7167C80.9583 37.8413 75.863 40.8559 71.1901 45.9665C67.9429 49.5266 64.3788 55.6133 63.2172 59.5754C62.7156 61.2981 62.5572 61.3268 62.0292 59.8051C61.3164 57.7092 58.8347 52.6848 57.3827 50.3879C55.7459 47.7752 52.2874 44.0428 49.5946 41.9756C45.4498 38.76 39.1929 35.8889 34.0448 34.8553C31.6952 34.3959 24.9631 34.1088 21.9798 34.3672ZM47.113 97.8758C47.113 98.3065 45.8722 98.5936 39.0609 99.9143C35.4968 100.603 28.0783 102.785 22.0062 104.939C17.2013 106.633 15.9077 106.948 18.4686 105.771C25.0951 102.785 34.3616 99.9717 43.0209 98.3352C47.1658 97.56 47.113 97.56 47.113 97.8758ZM86.0535 99.2252C90.4096 100.144 95.0033 101.379 98.8049 102.671C102.263 103.848 106.065 105.369 105.907 105.542C105.775 105.685 103.451 104.967 97.8545 103.101C95.9009 102.441 94.2377 101.981 94.1057 102.068C93.9737 102.154 93.8417 102.096 93.7889 101.953C93.6833 101.551 90.6208 100.747 83.8887 99.3114C80.6415 98.6223 78.0014 97.962 78.0014 97.8758C78.0014 97.6749 81.4071 98.2491 86.0535 99.2252ZM68.7613 99.4836C77.4998 100.345 86.9512 102.785 95.1089 106.231C98.3297 107.58 97.5641 107.58 94.0793 106.231C90.0136 104.623 83.4399 102.671 78.7934 101.637C73.5662 100.489 68.8933 100.058 62.1612 100.058C55.8251 100.087 53.5019 100.345 47.113 101.781C45.4497 102.154 43.6017 102.527 43.0473 102.642C41.7009 102.872 36.5 104.537 32.4872 105.972C30.7711 106.604 29.2927 107.035 29.2399 106.977C29.0287 106.776 35.312 104.25 38.5593 103.245C41.9913 102.182 49.225 100.431 52.261 99.9143C57.5939 99.0243 62.9796 98.8807 68.7613 99.4836ZM69.0517 102.958C70.6621 103.187 73.3814 103.762 75.071 104.221C78.239 105.111 82.8591 106.776 82.6479 107.006C82.5951 107.063 81.1959 106.661 79.5591 106.116C77.8958 105.57 74.939 104.738 72.9854 104.307C69.6325 103.561 69.0253 103.503 62.8212 103.503C56.4323 103.503 56.0891 103.532 52.1026 104.451C49.8322 104.967 47.113 105.685 46.057 106.087C43.3641 107.092 42.8625 106.977 45.2649 105.915C47.509 104.91 52.4987 103.532 55.9835 102.958C59.2044 102.412 65.4612 102.412 69.0517 102.958Z" fill="#3C722C"/>
<path d="M139.984 50.2627L139 51.3855V67.4778C139 82.6345 139.039 83.6636 139.748 84.6928C140.496 85.8155 140.614 85.8155 149.313 85.9559C157.698 86.0962 158.17 86.0494 159.154 85.1606C160.374 83.9911 160.768 81.6989 160.059 79.6406C159.272 77.4419 158.327 77.0209 154.509 77.3951C152.698 77.5822 150.061 77.5822 148.644 77.3951L146.085 77.0677V64.25V51.3855L145.101 50.2627C143.763 48.6254 141.322 48.6254 139.984 50.2627Z" fill="#29280F"/>
<path d="M171.396 49.7486C162.343 53.2571 157.816 65.4666 161.792 75.5711C163.366 79.5474 165.728 82.4478 168.877 84.319C171.2 85.6756 171.79 85.8159 175.018 85.8159C180.686 85.8159 184.78 83.4301 187.614 78.4715C192.062 70.6592 191.354 61.2564 185.843 54.6605C182.851 51.0584 179.899 49.4211 176.041 49.234C174.231 49.1404 172.38 49.3743 171.396 49.7486ZM178.088 58.59C179.741 59.432 182.064 62.5663 182.694 64.7649C183.717 68.367 182.457 72.9046 179.781 75.4775C178.403 76.7874 178.049 76.9277 175.411 76.9277C172.774 76.9277 172.42 76.7874 171.003 75.4775C168.523 73.0918 167.696 70.9399 167.814 67.2443C167.932 64.6714 168.169 63.7358 169.153 62.0985C171.318 58.4496 174.939 57.0462 178.088 58.59Z" fill="#29280F"/>
<path d="M203.123 49.7953C198.832 51.6665 195.88 54.8008 193.872 59.6191C192.81 62.192 192.731 62.847 192.731 67.5717C192.731 72.4368 192.81 72.9046 193.991 75.805C195.526 79.5474 198.36 82.822 201.509 84.5529C203.438 85.6288 204.264 85.8159 207.492 85.8159C211.862 85.7691 214.578 84.6464 216.546 81.98C218.317 79.641 218.12 78.4715 215.601 76.226L213.475 74.308L211.586 75.7582C208.516 78.0504 205.091 77.6294 202.414 74.6823C199.068 70.8931 198.754 65.2795 201.666 61.0225C204.304 57.2801 208.24 56.5317 211.429 59.1513C213.003 60.4144 213.042 60.4612 213.908 59.5724C216.27 57.2334 217.333 55.8767 217.333 55.1283C217.333 53.912 214.341 51.1052 211.94 50.0292C209.5 48.9533 205.327 48.813 203.123 49.7953Z" fill="#29280F"/>
<path d="M230.008 49.4209C229.26 49.7483 228.749 51.1049 224.261 64.905C221.978 71.8752 219.656 78.6583 219.105 79.9682C218.554 81.2312 218.121 82.6814 218.121 83.1492C218.121 85.3011 221.663 86.7513 223.986 85.5818C224.852 85.1607 225.363 84.3655 226.033 82.4007C226.505 80.9038 227.095 79.4536 227.292 79.1261C227.568 78.7519 229.221 78.5648 233.079 78.5648H238.472L239.574 81.6055C240.794 85.114 241.699 86.0496 243.786 86.0496C247.25 86.0496 248.391 84.3655 247.25 80.9038C241.03 62.3789 236.936 50.6839 236.385 49.9822C235.834 49.2805 235.204 49.0934 233.118 49.1402C231.701 49.1402 230.284 49.2805 230.008 49.4209ZM234.575 65.7003L236.149 70.3783L233.197 70.5186C231.544 70.6122 230.166 70.6122 230.126 70.5186C230.048 70.4251 230.599 68.2732 231.347 65.7003C232.055 63.1274 232.685 60.9287 232.685 60.8352C232.685 60.2738 233.157 61.4433 234.575 65.7003Z" fill="#29280F"/>
<path d="M252.957 50.263L251.973 51.3857V67.7119C251.973 83.7107 251.973 84.0381 252.8 84.9269C253.587 85.769 254.335 85.8158 263.073 85.8158C273.898 85.8158 273.623 85.9093 273.623 81.6056C273.623 77.6293 273.229 77.3954 265.593 77.3954H259.255L259.137 64.2034L259.058 51.0115L257.996 50.0759C256.539 48.6725 254.177 48.766 252.957 50.263Z" fill="#29280F"/>
<path d="M285.235 49.7019C282.755 50.8714 281.496 51.9473 280.315 53.9589C276.457 60.6952 278.937 68.18 285.786 70.4254C291.218 72.2031 293.068 73.5129 292.832 75.4309C292.753 76.0858 292.163 76.7875 291.179 77.3489C289.88 78.0973 289.408 78.1441 287.754 77.7231C286.691 77.3956 285.117 76.6472 284.251 75.9922C283.385 75.3373 282.44 74.8227 282.125 74.8227C281.81 74.8227 280.708 75.7583 279.645 76.8811C277.795 78.9394 277.756 78.9862 278.346 80.2492C279.134 81.9801 282.283 84.4594 284.763 85.3482C288.778 86.7516 293.856 85.9564 296.729 83.3835C300.193 80.3428 301.295 74.0275 299.091 69.5834C297.674 66.683 296.414 65.7006 291.691 63.8294C286.298 61.6776 284.527 59.5725 286.691 57.7948C288.148 56.5786 290.943 56.8592 293.541 58.4497L295.824 59.8999L297.792 57.5141L299.8 55.1284L297.792 52.8829C296.493 51.4795 295.037 50.4036 293.698 49.889C291.336 49.0002 287.006 48.9066 285.235 49.7019Z" fill="#29280F"/>
<path d="M306.885 49.6545C306.452 49.9351 305.98 50.4029 305.822 50.6836C305.665 50.9643 305.507 58.4959 305.507 67.3841C305.507 82.1665 305.586 83.7103 306.216 84.5991C306.885 85.6282 307.121 85.6282 316.687 85.675C326.409 85.7218 326.528 85.675 327.236 84.6459C328.299 83.1021 328.181 79.9211 327.039 78.658C326.173 77.6757 325.74 77.6289 319.993 77.6289C316.608 77.6289 313.577 77.4885 313.223 77.3482C312.75 77.1143 312.593 76.3658 312.593 74.3075V71.5475H318.301C323.89 71.5475 324.087 71.5007 324.992 70.378C326.134 69.0681 326.291 66.6356 325.425 65.1854C324.914 64.3901 324.205 64.2498 318.812 64.0627L312.79 63.8288V60.7881V57.7474L319.6 57.5135C326.213 57.2796 326.449 57.2328 327.197 56.1569C327.59 55.5487 327.945 54.3792 327.945 53.5372C327.945 49.3738 327.236 49.0931 316.45 49.0931C310.664 49.1399 307.397 49.2802 306.885 49.6545Z" fill="#29280F"/>
<path d="M334.046 50.2629L333.062 51.3856V67.478C333.062 82.6347 333.101 83.6638 333.81 84.693C334.558 85.8157 334.676 85.8157 343.178 85.956C352.626 86.1432 354.003 85.956 355.145 84.5994C356.168 83.3831 356.129 80.4828 355.066 78.8455L354.279 77.6292H347.43H340.62L340.344 75.0563C340.226 73.6529 340.187 72.2963 340.344 72.0156C340.502 71.7349 342.745 71.5478 346.013 71.5478C350.776 71.5478 351.602 71.4543 352.389 70.659C353.57 69.5363 353.688 66.4956 352.586 65.0454C351.878 64.1566 351.405 64.063 346.17 64.063H340.541V60.7884V57.5138H346.997C352.783 57.5138 353.531 57.4203 354.397 56.5782C356.129 54.9877 356.09 50.6839 354.318 49.5612C353.885 49.2806 349.595 49.0934 344.281 49.0934H334.991L334.046 50.2629Z" fill="#29280F"/>
<path d="M361.443 50.2631C360.616 51.5262 360.616 51.9004 360.616 67.5717C360.616 87.1725 360.183 85.7224 366.245 85.9563C379.156 86.5176 386.084 81.4654 387.777 70.285C388.958 62.2856 385.376 54.5201 378.802 50.8245C376.204 49.3275 376.086 49.3275 369.237 49.1872L362.309 49.0001L361.443 50.2631ZM374.511 58.0286C376.362 58.6368 379.038 61.3968 379.786 63.4551C380.534 65.607 380.416 69.5833 379.55 71.7819C378.094 75.5711 375.574 77.1616 371.047 77.1616H368.095V67.3378V57.514H370.575C371.913 57.514 373.685 57.7479 374.511 58.0286Z" fill="#29280F"/>
<path d="M285.757 98.2667C284.261 98.828 282.096 101.214 281.309 103.225C279.577 107.81 281.349 112.956 285.364 114.967C291.15 117.821 297.173 111.646 295.519 104.535C295.008 102.149 293.04 99.3894 291.308 98.5473C290.009 97.8924 287.332 97.7521 285.757 98.2667ZM289.536 102.617C293.433 104.208 292.37 111.459 288.237 111.459C287.096 111.459 286.466 111.084 285.442 109.868C283.907 108.044 283.75 106.734 284.891 104.535C286.033 102.337 287.411 101.728 289.536 102.617Z" fill="#29280F"/>
<path d="M236.215 98.2817C235.704 98.843 235.9 114.093 236.412 114.701C237.79 116.339 239.876 114.468 239.876 111.661V110.117H242.395C244.56 110.117 245.112 109.93 246.135 108.901C247.906 107.123 248.418 104.597 247.591 101.977C246.529 98.7027 245.19 97.9542 240.388 97.9542C238.223 97.9542 236.333 98.0945 236.215 98.2817ZM244.246 102.679C244.757 103.661 244.679 105.252 244.049 105.86C243.734 106.187 242.632 106.375 241.569 106.281C239.758 106.141 239.679 106.094 239.561 104.597C239.325 101.884 239.64 101.556 241.884 101.79C242.986 101.93 244.049 102.352 244.246 102.679Z" fill="#29280F"/>
<path d="M258.336 98.7496C258.178 107.778 258.375 114.047 258.769 114.608C259.32 115.403 260.776 115.45 261.406 114.702C261.682 114.374 261.879 113.251 261.879 112.129C261.879 110.211 261.918 110.117 263.059 110.117C264.083 110.117 264.358 110.445 265.224 112.456C266.248 114.889 267.35 115.637 268.925 115.029C269.869 114.702 270.027 113.298 269.2 112.503C268.885 112.222 268.452 111.38 268.177 110.632C267.783 109.415 267.862 109.182 268.925 107.872C269.948 106.655 270.145 106.094 270.145 104.129C270.145 99.6384 267.98 97.9543 262.075 97.9543C258.769 97.9543 258.336 98.0479 258.336 98.7496ZM266.209 102.819C266.445 103.194 266.602 103.989 266.523 104.597C266.405 105.579 266.169 105.673 264.162 105.813L261.879 105.954V104.036V102.165H263.807C264.988 102.165 265.894 102.398 266.209 102.819Z" fill="#29280F"/>
<path d="M144.774 105.005C143.406 105.672 143.053 107.405 144.023 108.471C144.818 109.315 145.568 109.36 173.37 109.36C195.7 109.36 202.054 109.227 202.363 108.782C203.378 107.494 203.378 106.649 202.275 105.538L201.216 104.472L173.502 104.516C154.394 104.516 145.48 104.694 144.774 105.005Z" fill="#2B5820"/>
<path d="M324.834 105.183C323.647 105.983 323.56 107.627 324.658 108.604C325.405 109.271 328.042 109.36 353.617 109.36C380.247 109.36 381.829 109.315 382.752 108.56C384.027 107.494 383.675 105.716 382.093 105.005C381.258 104.605 373.524 104.472 353.398 104.472C329.14 104.472 325.713 104.561 324.834 105.183Z" fill="#2B5820"/>
<path d="M213.957 105.36C212.816 107.887 214.075 109.15 217.776 109.15C220.649 109.15 221.83 108.448 221.83 106.67C221.83 105.033 220.728 104.472 217.5 104.472C214.823 104.472 214.312 104.612 213.957 105.36Z" fill="#2B5820"/>
<path d="M306.451 105.033C305.781 105.828 305.86 107.559 306.608 108.401C307.041 108.963 307.986 109.15 310.072 109.15C313.182 109.15 313.851 108.729 313.851 106.811C313.851 106.156 313.654 105.36 313.378 105.033C312.749 104.285 307.08 104.285 306.451 105.033Z" fill="#2B5820"/>
</svg>
