<svg width="389" height="111" viewBox="0 0 389 111" fill="none" xmlns="http://www.w3.org/2000/svg">
<path d="M60.5507 1.34951C57.3299 4.50771 53.713 9.87666 51.6802 14.5278C49.8322 18.777 49.3834 20.9591 49.3834 25.9835C49.357 29.7733 49.4362 30.4911 49.9378 31.9841C51.3898 36.1472 54.2146 39.7073 57.4355 41.4013C58.5179 41.9755 59.6531 42.521 59.9963 42.6358L60.5771 42.8081V36.9224C60.5771 31.0653 60.5771 31.0366 59.9963 30.8644C59.1779 30.5772 57.7787 29.113 57.3827 28.0794C57.1979 27.5626 56.9867 27.3329 56.8283 27.5052C56.5379 27.821 57.5147 30.5198 58.0955 31.0366C58.3067 31.2089 58.4651 31.4673 58.4651 31.6108C58.4651 32.7019 56.0363 30.0317 55.4027 28.2804C55.165 27.5626 54.8482 26.9884 54.7162 26.9884C54.5842 26.9884 54.5578 26.8448 54.6634 26.6438C54.769 26.4429 54.7426 26.4142 54.5314 26.529C54.109 26.8161 54.4258 29.8308 55.0594 31.697C55.7195 33.6206 55.5347 33.678 54.6898 31.8118C53.7394 29.7159 53.4754 28.1368 53.449 25.0935C53.449 22.1362 54.0826 19.0929 55.3235 16.1356C56.3531 13.6378 59.0987 9.21631 61.0259 6.94814L62.5572 5.11064L64.0356 7.0917C66.0948 9.81924 68.6292 13.9823 69.5797 16.1644C70.8469 19.1503 71.7181 23.3134 71.5861 25.8399C71.5333 27.1319 71.3221 28.3378 71.0581 28.8546L70.6093 29.7159L70.7677 28.3665C71.0053 26.2993 70.6357 26.1845 69.8437 28.0507C69.4213 28.9981 68.5764 30.2327 67.89 30.9218C66.6756 32.1563 65.9364 32.6157 66.7284 31.6396C67.23 31.0366 68.7612 27.4765 68.7612 26.931C68.7348 26.73 68.5764 26.9597 68.3916 27.419C68.2068 27.9071 67.4148 28.912 66.6492 29.6585C65.4084 30.8931 64.8804 31.1802 64.1676 31.0366C64.0356 31.0079 64.0092 32.5009 64.0884 34.6542C64.194 36.664 64.2732 39.2767 64.2732 40.4538V42.5497L65.1444 42.3774C66.8076 42.0329 69.3421 40.3964 71.1637 38.5302C75.6517 33.9364 77.0774 26.2993 74.8333 18.8058C73.6717 14.8724 71.7973 11.0538 69.3157 7.46494C66.9132 3.96221 63.27 9.54345e-05 62.478 9.54345e-05C62.1876 9.54345e-05 61.3163 0.603025 60.5507 1.34951Z" fill="black"/>
<path d="M60.5507 1.34951C57.3299 4.50771 53.713 9.87666 51.6802 14.5278C49.8322 18.777 49.3834 20.9591 49.3834 25.9835C49.357 29.7733 49.4362 30.4911 49.9378 31.9841C51.3898 36.1472 54.2146 39.7073 57.4355 41.4013C58.5179 41.9755 59.6531 42.521 59.9963 42.6358L60.5771 42.8081V36.9224C60.5771 31.0653 60.5771 31.0366 59.9963 30.8644C59.1779 30.5772 57.7787 29.113 57.3827 28.0794C57.1979 27.5626 56.9867 27.3329 56.8283 27.5052C56.5379 27.821 57.5147 30.5198 58.0955 31.0366C58.3067 31.2089 58.4651 31.4673 58.4651 31.6108C58.4651 32.7019 56.0363 30.0317 55.4027 28.2804C55.165 27.5626 54.8482 26.9884 54.7162 26.9884C54.5842 26.9884 54.5578 26.8448 54.6634 26.6438C54.769 26.4429 54.7426 26.4142 54.5314 26.529C54.109 26.8161 54.4258 29.8308 55.0594 31.697C55.7195 33.6206 55.5347 33.678 54.6898 31.8118C53.7394 29.7159 53.4754 28.1368 53.449 25.0935C53.449 22.1362 54.0826 19.0929 55.3235 16.1356C56.3531 13.6378 59.0987 9.21631 61.0259 6.94814L62.5572 5.11064L64.0356 7.0917C66.0948 9.81924 68.6292 13.9823 69.5797 16.1644C70.8469 19.1503 71.7181 23.3134 71.5861 25.8399C71.5333 27.1319 71.3221 28.3378 71.0581 28.8546L70.6093 29.7159L70.7677 28.3665C71.0053 26.2993 70.6357 26.1845 69.8437 28.0507C69.4213 28.9981 68.5764 30.2327 67.89 30.9218C66.6756 32.1563 65.9364 32.6157 66.7284 31.6396C67.23 31.0366 68.7612 27.4765 68.7612 26.931C68.7348 26.73 68.5764 26.9597 68.3916 27.419C68.2068 27.9071 67.4148 28.912 66.6492 29.6585C65.4084 30.8931 64.8804 31.1802 64.1676 31.0366C64.0356 31.0079 64.0092 32.5009 64.0884 34.6542C64.194 36.664 64.2732 39.2767 64.2732 40.4538V42.5497L65.1444 42.3774C66.8076 42.0329 69.3421 40.3964 71.1637 38.5302C75.6517 33.9364 77.0774 26.2993 74.8333 18.8058C73.6717 14.8724 71.7973 11.0538 69.3157 7.46494C66.9132 3.96221 63.27 9.54345e-05 62.478 9.54345e-05C62.1876 9.54345e-05 61.3163 0.603025 60.5507 1.34951Z" fill="#3C722C"/>
<path d="M21.9798 34.3672C20.343 34.4821 19.1286 35.3721 19.1286 36.4631C19.1286 36.779 19.8942 39.5926 20.8182 42.7221C21.7422 45.8229 22.6926 49.3543 22.9566 50.5315C23.1942 51.7086 23.7486 54.2352 24.171 56.1301C26.2303 65.4038 32.2232 73.7299 39.8529 77.893C41.8329 78.9553 45.6874 80.3909 47.8522 80.8502C50.5978 81.4245 56.1683 81.3958 56.6171 80.8215C57.2243 80.0176 55.4555 73.9596 53.5283 70.1411C53.0267 69.1362 52.5251 68.2749 52.4195 68.2174C52.3138 68.1313 51.733 68.3323 51.0994 68.6481C49.8058 69.2797 45.8458 69.3946 43.3905 68.9065C41.6481 68.5333 36.368 65.7483 35.2064 64.5711C34.7576 64.1118 34.3088 63.7385 34.2032 63.7385C33.992 63.7385 32.0384 61.3268 30.6391 59.317C29.0815 57.0776 28.5007 55.4411 27.0487 49.2969C26.3359 46.1961 25.3327 42.5211 24.8575 41.143L23.9598 38.6165L26.7583 38.5303C33.596 38.3294 40.1961 40.454 46.189 44.7606C48.5386 46.4258 51.8914 49.8999 53.2115 51.9958C54.5843 54.2065 55.8779 56.6182 55.7459 56.7331C55.6931 56.7905 53.8979 55.9004 51.7594 54.7233C45.4234 51.2206 41.4105 49.8424 39.8793 50.6176C39.3777 50.876 39.5625 51.0483 41.5953 52.168C47.3242 55.3549 54.3203 63.2792 57.4883 70.1985C59.1516 73.8448 60.3132 79.3286 60.3132 83.6065C60.3132 87.5686 59.1516 91.7317 57.4883 93.7989L56.7491 94.6889L51.865 95.1483C36.9488 96.5838 25.4911 99.1678 11.0765 104.365C1.91552 107.666 -0.170113 108.786 0.516297 109.963C0.621899 110.164 21.1878 110.25 62.3988 110.25C117.84 110.25 124.176 110.193 124.466 109.791C125.021 109.073 124.361 108.614 119.952 106.776C103.531 99.8569 91.1752 96.8997 70.0813 94.8325L67.8373 94.6028L66.9661 93.0237C63.666 86.9944 63.8244 79.2424 67.4677 70.6579C70.8469 62.7049 78.6614 54.0629 84.9975 51.2493L86.476 50.6176L85.5255 50.4454C83.6775 50.1295 81.4599 50.8186 75.8102 53.4313C72.7214 54.8668 69.9493 56.2163 69.6325 56.4459C69.2893 56.6756 69.0253 56.7618 69.0253 56.6182C69.0253 56.5034 69.8437 55.0391 70.8205 53.3739C74.3846 47.4881 79.4535 43.2676 86.1855 40.6262C89.6704 39.2768 92.3632 38.7313 96.8513 38.559C100.917 38.3868 101.049 38.4155 100.864 38.9323C99.7553 41.8608 99.1745 43.9567 98.1713 48.3782C96.4025 56.1301 96.1121 56.9053 94.0793 59.92C91.624 63.4514 89.9608 65.0305 87.1096 66.4661C83.5191 68.3323 81.5655 68.9639 79.0574 69.1075C76.8398 69.251 73.6454 68.7917 73.883 68.361C73.9622 68.2461 73.7774 68.0165 73.487 67.8155C73.0382 67.4997 72.9062 67.5858 72.4309 68.3897C70.7149 71.4043 68.6557 77.0317 68.3389 79.5583C68.1805 80.879 68.2069 80.9364 68.8933 81.1374C70.3981 81.5393 76.4438 81.0512 79.1102 80.3047C87.5584 77.9217 94.9505 71.2608 98.5937 62.7911C99.993 59.518 100.811 56.7618 101.63 52.3977C102.026 50.3305 103.108 46.0813 104.059 42.9518C106.487 34.7692 106.408 34.5395 100.811 34.2524C96.4817 34.0514 92.8384 34.4821 88.3768 35.7167C80.9583 37.8413 75.863 40.8559 71.1901 45.9665C67.9429 49.5266 64.3788 55.6133 63.2172 59.5754C62.7156 61.2981 62.5572 61.3268 62.0292 59.8051C61.3164 57.7092 58.8347 52.6848 57.3827 50.3879C55.7459 47.7752 52.2874 44.0428 49.5946 41.9756C45.4498 38.76 39.1929 35.8889 34.0448 34.8553C31.6952 34.3959 24.9631 34.1088 21.9798 34.3672ZM47.113 97.8758C47.113 98.3065 45.8722 98.5936 39.0609 99.9143C35.4968 100.603 28.0783 102.785 22.0062 104.939C17.2013 106.633 15.9077 106.948 18.4686 105.771C25.0951 102.785 34.3616 99.9717 43.0209 98.3352C47.1658 97.56 47.113 97.56 47.113 97.8758ZM86.0535 99.2252C90.4096 100.144 95.0033 101.379 98.8049 102.671C102.263 103.848 106.065 105.369 105.907 105.542C105.775 105.685 103.451 104.967 97.8545 103.101C95.9009 102.441 94.2377 101.981 94.1057 102.068C93.9737 102.154 93.8417 102.096 93.7889 101.953C93.6833 101.551 90.6208 100.747 83.8887 99.3114C80.6415 98.6223 78.0014 97.962 78.0014 97.8758C78.0014 97.6749 81.4071 98.2491 86.0535 99.2252ZM68.7613 99.4836C77.4998 100.345 86.9512 102.785 95.1089 106.231C98.3297 107.58 97.5641 107.58 94.0793 106.231C90.0136 104.623 83.4399 102.671 78.7934 101.637C73.5662 100.489 68.8933 100.058 62.1612 100.058C55.8251 100.087 53.5019 100.345 47.113 101.781C45.4497 102.154 43.6017 102.527 43.0473 102.642C41.7009 102.872 36.5 104.537 32.4872 105.972C30.7711 106.604 29.2927 107.035 29.2399 106.977C29.0287 106.776 35.312 104.25 38.5593 103.245C41.9913 102.182 49.225 100.431 52.261 99.9143C57.5939 99.0243 62.9796 98.8807 68.7613 99.4836ZM69.0517 102.958C70.6621 103.187 73.3814 103.762 75.071 104.221C78.239 105.111 82.8591 106.776 82.6479 107.006C82.5951 107.063 81.1959 106.661 79.5591 106.116C77.8958 105.57 74.939 104.738 72.9854 104.307C69.6325 103.561 69.0253 103.503 62.8212 103.503C56.4323 103.503 56.0891 103.532 52.1026 104.451C49.8322 104.967 47.113 105.685 46.057 106.087C43.3641 107.092 42.8625 106.977 45.2649 105.915C47.509 104.91 52.4987 103.532 55.9835 102.958C59.2044 102.412 65.4612 102.412 69.0517 102.958Z" fill="black"/>
<path d="M21.9798 34.3672C20.343 34.4821 19.1286 35.3721 19.1286 36.4631C19.1286 36.779 19.8942 39.5926 20.8182 42.7221C21.7422 45.8229 22.6926 49.3543 22.9566 50.5315C23.1942 51.7086 23.7486 54.2352 24.171 56.1301C26.2303 65.4038 32.2232 73.7299 39.8529 77.893C41.8329 78.9553 45.6874 80.3909 47.8522 80.8502C50.5978 81.4245 56.1683 81.3958 56.6171 80.8215C57.2243 80.0176 55.4555 73.9596 53.5283 70.1411C53.0267 69.1362 52.5251 68.2749 52.4195 68.2174C52.3138 68.1313 51.733 68.3323 51.0994 68.6481C49.8058 69.2797 45.8458 69.3946 43.3905 68.9065C41.6481 68.5333 36.368 65.7483 35.2064 64.5711C34.7576 64.1118 34.3088 63.7385 34.2032 63.7385C33.992 63.7385 32.0384 61.3268 30.6391 59.317C29.0815 57.0776 28.5007 55.4411 27.0487 49.2969C26.3359 46.1961 25.3327 42.5211 24.8575 41.143L23.9598 38.6165L26.7583 38.5303C33.596 38.3294 40.1961 40.454 46.189 44.7606C48.5386 46.4258 51.8914 49.8999 53.2115 51.9958C54.5843 54.2065 55.8779 56.6182 55.7459 56.7331C55.6931 56.7905 53.8979 55.9004 51.7594 54.7233C45.4234 51.2206 41.4105 49.8424 39.8793 50.6176C39.3777 50.876 39.5625 51.0483 41.5953 52.168C47.3242 55.3549 54.3203 63.2792 57.4883 70.1985C59.1516 73.8448 60.3132 79.3286 60.3132 83.6065C60.3132 87.5686 59.1516 91.7317 57.4883 93.7989L56.7491 94.6889L51.865 95.1483C36.9488 96.5838 25.4911 99.1678 11.0765 104.365C1.91552 107.666 -0.170113 108.786 0.516297 109.963C0.621899 110.164 21.1878 110.25 62.3988 110.25C117.84 110.25 124.176 110.193 124.466 109.791C125.021 109.073 124.361 108.614 119.952 106.776C103.531 99.8569 91.1752 96.8997 70.0813 94.8325L67.8373 94.6028L66.9661 93.0237C63.666 86.9944 63.8244 79.2424 67.4677 70.6579C70.8469 62.7049 78.6614 54.0629 84.9975 51.2493L86.476 50.6176L85.5255 50.4454C83.6775 50.1295 81.4599 50.8186 75.8102 53.4313C72.7214 54.8668 69.9493 56.2163 69.6325 56.4459C69.2893 56.6756 69.0253 56.7618 69.0253 56.6182C69.0253 56.5034 69.8437 55.0391 70.8205 53.3739C74.3846 47.4881 79.4535 43.2676 86.1855 40.6262C89.6704 39.2768 92.3632 38.7313 96.8513 38.559C100.917 38.3868 101.049 38.4155 100.864 38.9323C99.7553 41.8608 99.1745 43.9567 98.1713 48.3782C96.4025 56.1301 96.1121 56.9053 94.0793 59.92C91.624 63.4514 89.9608 65.0305 87.1096 66.4661C83.5191 68.3323 81.5655 68.9639 79.0574 69.1075C76.8398 69.251 73.6454 68.7917 73.883 68.361C73.9622 68.2461 73.7774 68.0165 73.487 67.8155C73.0382 67.4997 72.9062 67.5858 72.4309 68.3897C70.7149 71.4043 68.6557 77.0317 68.3389 79.5583C68.1805 80.879 68.2069 80.9364 68.8933 81.1374C70.3981 81.5393 76.4438 81.0512 79.1102 80.3047C87.5584 77.9217 94.9505 71.2608 98.5937 62.7911C99.993 59.518 100.811 56.7618 101.63 52.3977C102.026 50.3305 103.108 46.0813 104.059 42.9518C106.487 34.7692 106.408 34.5395 100.811 34.2524C96.4817 34.0514 92.8384 34.4821 88.3768 35.7167C80.9583 37.8413 75.863 40.8559 71.1901 45.9665C67.9429 49.5266 64.3788 55.6133 63.2172 59.5754C62.7156 61.2981 62.5572 61.3268 62.0292 59.8051C61.3164 57.7092 58.8347 52.6848 57.3827 50.3879C55.7459 47.7752 52.2874 44.0428 49.5946 41.9756C45.4498 38.76 39.1929 35.8889 34.0448 34.8553C31.6952 34.3959 24.9631 34.1088 21.9798 34.3672ZM47.113 97.8758C47.113 98.3065 45.8722 98.5936 39.0609 99.9143C35.4968 100.603 28.0783 102.785 22.0062 104.939C17.2013 106.633 15.9077 106.948 18.4686 105.771C25.0951 102.785 34.3616 99.9717 43.0209 98.3352C47.1658 97.56 47.113 97.56 47.113 97.8758ZM86.0535 99.2252C90.4096 100.144 95.0033 101.379 98.8049 102.671C102.263 103.848 106.065 105.369 105.907 105.542C105.775 105.685 103.451 104.967 97.8545 103.101C95.9009 102.441 94.2377 101.981 94.1057 102.068C93.9737 102.154 93.8417 102.096 93.7889 101.953C93.6833 101.551 90.6208 100.747 83.8887 99.3114C80.6415 98.6223 78.0014 97.962 78.0014 97.8758C78.0014 97.6749 81.4071 98.2491 86.0535 99.2252ZM68.7613 99.4836C77.4998 100.345 86.9512 102.785 95.1089 106.231C98.3297 107.58 97.5641 107.58 94.0793 106.231C90.0136 104.623 83.4399 102.671 78.7934 101.637C73.5662 100.489 68.8933 100.058 62.1612 100.058C55.8251 100.087 53.5019 100.345 47.113 101.781C45.4497 102.154 43.6017 102.527 43.0473 102.642C41.7009 102.872 36.5 104.537 32.4872 105.972C30.7711 106.604 29.2927 107.035 29.2399 106.977C29.0287 106.776 35.312 104.25 38.5593 103.245C41.9913 102.182 49.225 100.431 52.261 99.9143C57.5939 99.0243 62.9796 98.8807 68.7613 99.4836ZM69.0517 102.958C70.6621 103.187 73.3814 103.762 75.071 104.221C78.239 105.111 82.8591 106.776 82.6479 107.006C82.5951 107.063 81.1959 106.661 79.5591 106.116C77.8958 105.57 74.939 104.738 72.9854 104.307C69.6325 103.561 69.0253 103.503 62.8212 103.503C56.4323 103.503 56.0891 103.532 52.1026 104.451C49.8322 104.967 47.113 105.685 46.057 106.087C43.3641 107.092 42.8625 106.977 45.2649 105.915C47.509 104.91 52.4987 103.532 55.9835 102.958C59.2044 102.412 65.4612 102.412 69.0517 102.958Z" fill="#3C722C"/>
<path d="M140.984 24.5833L140 25.706V41.7983C140 56.955 140.039 57.9842 140.748 59.0134C141.496 60.1361 141.614 60.1361 150.313 60.2764C158.698 60.4168 159.17 60.37 160.154 59.4812C161.374 58.3117 161.768 56.0194 161.059 53.9611C160.272 51.7625 159.327 51.3414 155.509 51.7157C153.698 51.9028 151.061 51.9028 149.644 51.7157L147.085 51.3882V38.5705V25.706L146.101 24.5833C144.763 22.946 142.322 22.946 140.984 24.5833Z" fill="#29280F"/>
<path d="M172.396 24.0691C163.343 27.5776 158.816 39.7872 162.792 49.8917C164.366 53.868 166.728 56.7683 169.877 58.6395C172.2 59.9961 172.79 60.1365 176.018 60.1365C181.686 60.1365 185.78 57.7507 188.614 52.792C193.062 44.9798 192.354 35.577 186.843 28.981C183.851 25.379 180.899 23.7417 177.041 23.5545C175.231 23.461 173.38 23.6949 172.396 24.0691ZM179.088 32.9105C180.741 33.7526 183.064 36.8868 183.694 39.0855C184.717 42.6876 183.457 47.2252 180.781 49.7981C179.403 51.1079 179.049 51.2483 176.411 51.2483C173.774 51.2483 173.42 51.1079 172.003 49.7981C169.523 47.4123 168.696 45.2604 168.814 41.5648C168.932 38.9919 169.169 38.0563 170.153 36.419C172.318 32.7702 175.939 31.3668 179.088 32.9105Z" fill="#29280F"/>
<path d="M204.123 24.1159C199.832 25.9871 196.88 29.1214 194.872 33.9397C193.81 36.5126 193.731 37.1675 193.731 41.8923C193.731 46.7574 193.81 47.2252 194.991 50.1256C196.526 53.868 199.36 57.1426 202.509 58.8734C204.438 59.9494 205.264 60.1365 208.492 60.1365C212.862 60.0897 215.578 58.967 217.546 56.3005C219.317 53.9615 219.12 52.792 216.601 50.5466L214.475 48.6286L212.586 50.0788C209.516 52.371 206.091 51.95 203.414 49.0028C200.068 45.2137 199.754 39.6001 202.666 35.3431C205.304 31.6007 209.24 30.8522 212.429 33.4719C214.003 34.735 214.042 34.7817 214.908 33.8929C217.27 31.5539 218.333 30.1973 218.333 29.4488C218.333 28.2325 215.341 25.4257 212.94 24.3498C210.5 23.2739 206.327 23.1335 204.123 24.1159Z" fill="#29280F"/>
<path d="M231.008 23.7414C230.26 24.0689 229.749 25.4255 225.261 39.2256C222.978 46.1958 220.656 52.9789 220.105 54.2887C219.554 55.5518 219.121 57.002 219.121 57.4698C219.121 59.6216 222.663 61.0718 224.986 59.9023C225.852 59.4813 226.363 58.686 227.033 56.7213C227.505 55.2243 228.095 53.7741 228.292 53.4467C228.568 53.0724 230.221 52.8853 234.079 52.8853H239.472L240.574 55.926C241.794 59.4345 242.699 60.3701 244.786 60.3701C248.25 60.3701 249.391 58.686 248.25 55.2243C242.03 36.6995 237.936 25.0045 237.385 24.3028C236.834 23.6011 236.204 23.414 234.118 23.4607C232.701 23.4607 231.284 23.6011 231.008 23.7414ZM235.575 40.0208L237.149 44.6988L234.197 44.8392C232.544 44.9327 231.166 44.9327 231.126 44.8392C231.048 44.7456 231.599 42.5937 232.347 40.0208C233.055 37.4479 233.685 35.2493 233.685 35.1557C233.685 34.5944 234.157 35.7639 235.575 40.0208Z" fill="#29280F"/>
<path d="M253.957 24.5835L252.973 25.7063V42.0325C252.973 58.0312 252.973 58.3587 253.8 59.2475C254.587 60.0895 255.335 60.1363 264.073 60.1363C274.898 60.1363 274.623 60.2299 274.623 55.9261C274.623 51.9498 274.229 51.7159 266.593 51.7159H260.255L260.137 38.524L260.058 25.332L258.996 24.3964C257.539 22.993 255.177 23.0866 253.957 24.5835Z" fill="#29280F"/>
<path d="M286.235 24.0225C283.755 25.192 282.496 26.2679 281.315 28.2794C277.457 35.0157 279.937 42.5005 286.786 44.746C292.218 46.5236 294.068 47.8335 293.832 49.7514C293.753 50.4064 293.163 51.1081 292.179 51.6694C290.88 52.4179 290.408 52.4647 288.754 52.0437C287.691 51.7162 286.117 50.9677 285.251 50.3128C284.385 49.6579 283.44 49.1433 283.125 49.1433C282.81 49.1433 281.708 50.0789 280.645 51.2016C278.795 53.2599 278.756 53.3067 279.346 54.5698C280.134 56.3006 283.283 58.78 285.763 59.6688C289.778 61.0722 294.856 60.2769 297.729 57.704C301.193 54.6633 302.295 48.348 300.091 43.9039C298.674 41.0036 297.414 40.0212 292.691 38.15C287.298 35.9981 285.527 33.893 287.691 32.1154C289.148 30.8991 291.943 31.1798 294.541 32.7703L296.824 34.2205L298.792 31.8347L300.8 29.4489L298.792 27.2035C297.493 25.8001 296.037 24.7242 294.698 24.2096C292.336 23.3208 288.006 23.2272 286.235 24.0225Z" fill="#29280F"/>
<path d="M307.885 23.975C307.452 24.2557 306.98 24.7235 306.822 25.0042C306.665 25.2849 306.507 32.8164 306.507 41.7046C306.507 56.4871 306.586 58.0308 307.216 58.9196C307.885 59.9488 308.121 59.9488 317.687 59.9956C327.409 60.0424 327.528 59.9956 328.236 58.9664C329.299 57.4227 329.181 54.2416 328.039 52.9786C327.173 51.9962 326.74 51.9494 320.993 51.9494C317.608 51.9494 314.577 51.8091 314.223 51.6687C313.75 51.4348 313.593 50.6864 313.593 48.6281V45.868H319.301C324.89 45.868 325.087 45.8213 325.992 44.6985C327.134 43.3887 327.291 40.9561 326.425 39.506C325.914 38.7107 325.205 38.5704 319.812 38.3832L313.79 38.1493V35.1086V32.0679L320.6 31.834C327.213 31.6001 327.449 31.5534 328.197 30.4774C328.59 29.8693 328.945 28.6998 328.945 27.8577C328.945 23.6943 328.236 23.4137 317.45 23.4137C311.664 23.4604 308.397 23.6008 307.885 23.975Z" fill="#29280F"/>
<path d="M335.046 24.5835L334.062 25.7062V41.7985C334.062 56.9552 334.101 57.9844 334.81 59.0135C335.558 60.1363 335.676 60.1363 344.178 60.2766C353.626 60.4637 355.003 60.2766 356.145 58.92C357.168 57.7037 357.129 54.8033 356.066 53.166L355.279 51.9498H348.43H341.62L341.344 49.3769C341.226 47.9735 341.187 46.6169 341.344 46.3362C341.502 46.0555 343.745 45.8684 347.013 45.8684C351.776 45.8684 352.602 45.7748 353.389 44.9796C354.57 43.8568 354.688 40.8161 353.586 39.366C352.878 38.4771 352.405 38.3836 347.17 38.3836H341.541V35.109V31.8344H347.997C353.783 31.8344 354.531 31.7408 355.397 30.8988C357.129 29.3083 357.09 25.0045 355.318 23.8818C354.885 23.6011 350.595 23.414 345.281 23.414H335.991L335.046 24.5835Z" fill="#29280F"/>
<path d="M362.443 24.5837C361.616 25.8468 361.616 26.221 361.616 41.8923C361.616 61.4931 361.183 60.0429 367.245 60.2768C380.156 60.8382 387.084 55.7859 388.777 44.6055C389.958 36.6061 386.376 28.8407 379.802 25.1451C377.204 23.6481 377.086 23.6481 370.237 23.5078L363.309 23.3206L362.443 24.5837ZM375.511 32.3492C377.362 32.9573 380.038 35.7173 380.786 37.7756C381.534 39.9275 381.416 43.9038 380.55 46.1025C379.094 49.8917 376.574 51.4822 372.047 51.4822H369.095V41.6584V31.8346H371.575C372.913 31.8346 374.685 32.0685 375.511 32.3492Z" fill="#29280F"/>
<path d="M286.757 72.5872C285.261 73.1486 283.096 75.5343 282.309 77.5459C280.577 82.1303 282.349 87.2761 286.364 89.2877C292.15 92.1412 298.173 85.9663 296.519 78.8557C296.008 76.4699 294.04 73.7099 292.308 72.8679C291.009 72.213 288.332 72.0726 286.757 72.5872ZM290.536 76.9377C294.433 78.5283 293.37 85.7792 289.237 85.7792C288.096 85.7792 287.466 85.4049 286.442 84.1886C284.907 82.3642 284.75 81.0544 285.891 78.8557C287.033 76.6571 288.411 76.0489 290.536 76.9377Z" fill="#29280F"/>
<path d="M237.215 72.6022C236.704 73.1636 236.9 88.4138 237.412 89.022C238.79 90.6593 240.876 88.7881 240.876 85.9813V84.4375H243.395C245.56 84.4375 246.112 84.2504 247.135 83.2213C248.906 81.4436 249.418 78.9175 248.591 76.2978C247.529 73.0232 246.19 72.2747 241.388 72.2747C239.223 72.2747 237.333 72.4151 237.215 72.6022ZM245.246 76.9995C245.757 77.9819 245.679 79.5724 245.049 80.1806C244.734 80.508 243.632 80.6951 242.569 80.6016C240.758 80.4612 240.679 80.4145 240.561 78.9175C240.325 76.2043 240.64 75.8768 242.884 76.1107C243.986 76.251 245.049 76.6721 245.246 76.9995Z" fill="#29280F"/>
<path d="M259.336 73.0701C259.178 82.0987 259.375 88.3672 259.769 88.9285C260.32 89.7238 261.776 89.7706 262.406 89.0221C262.682 88.6946 262.879 87.5719 262.879 86.4492C262.879 84.5312 262.918 84.4377 264.059 84.4377C265.083 84.4377 265.358 84.7651 266.224 86.7767C267.248 89.2092 268.35 89.9577 269.925 89.3496C270.869 89.0221 271.027 87.6187 270.2 86.8234C269.885 86.5428 269.452 85.7007 269.177 84.9522C268.783 83.736 268.862 83.5021 269.925 82.1922C270.948 80.9759 271.145 80.4146 271.145 78.4498C271.145 73.959 268.98 72.2749 263.075 72.2749C259.769 72.2749 259.336 72.3684 259.336 73.0701ZM267.209 77.14C267.445 77.5142 267.602 78.3095 267.523 78.9176C267.405 79.9 267.169 79.9936 265.162 80.1339L262.879 80.2742V78.3563V76.4851H264.807C265.988 76.4851 266.894 76.719 267.209 77.14Z" fill="#29280F"/>
<path d="M145.774 79.3256C144.406 79.9922 144.053 81.7252 145.023 82.7917C145.818 83.636 146.568 83.6804 174.37 83.6804C196.7 83.6804 203.054 83.5471 203.363 83.1027C204.378 81.8141 204.378 80.9698 203.275 79.8589L202.216 78.7924L174.502 78.8368C155.394 78.8368 146.48 79.0146 145.774 79.3256Z" fill="#2B5820"/>
<path d="M325.834 79.5034C324.647 80.3032 324.56 81.9474 325.658 82.925C326.405 83.5915 329.042 83.6804 354.617 83.6804C381.247 83.6804 382.829 83.636 383.752 82.8806C385.027 81.8141 384.675 80.0366 383.093 79.3256C382.258 78.9257 374.524 78.7924 354.398 78.7924C330.14 78.7924 326.713 78.8813 325.834 79.5034Z" fill="#2B5820"/>
<path d="M214.957 79.681C213.816 82.2072 215.075 83.4702 218.776 83.4702C221.649 83.4702 222.83 82.7685 222.83 80.9909C222.83 79.3536 221.728 78.7922 218.5 78.7922C215.823 78.7922 215.312 78.9326 214.957 79.681Z" fill="#2B5820"/>
<path d="M307.451 79.3536C306.781 80.1488 306.86 81.8797 307.608 82.7217C308.041 83.2831 308.986 83.4702 311.072 83.4702C314.182 83.4702 314.851 83.0492 314.851 81.1312C314.851 80.4763 314.654 79.681 314.378 79.3536C313.749 78.6051 308.08 78.6051 307.451 79.3536Z" fill="#2B5820"/>
</svg>
